<?xml version="1.0" encoding="UTF-8"?>
<svg id="Layer_3" data-name="Layer 3" xmlns="http://www.w3.org/2000/svg" xmlns:xlink="http://www.w3.org/1999/xlink" viewBox="0 0 3351.59 1395.64">
  <defs>
    <style>
      .cls-1 {
        fill: url(#linear-gradient-2);
      }

      .cls-2 {
        fill: url(#linear-gradient);
      }

      .cls-3 {
        fill: #2c68fe;
      }
    </style>
    <linearGradient id="linear-gradient" x1="945.61" y1="676.77" x2="945.61" y2="0" gradientUnits="userSpaceOnUse">
      <stop offset="0" stop-color="#2c68fe"/>
      <stop offset=".13" stop-color="#2e82f2"/>
      <stop offset=".3" stop-color="#319fe6"/>
      <stop offset=".47" stop-color="#34b4dd"/>
      <stop offset=".64" stop-color="#35c0d7"/>
      <stop offset=".8" stop-color="#36c5d6"/>
    </linearGradient>
    <linearGradient id="linear-gradient-2" x1="1257.11" y1="465.25" x2="1258.1" y2="465.25" xlink:href="#linear-gradient"/>
  </defs>
  <g id="Logos">
    <g>
      <g>
        <path class="cls-3" d="M10.42,1345.58c.83,0,1.45.21,1.45,1.66.42,6.44,3.32,15.37,8.31,23.47,6.02,9.55,16.2,14.12,26.17,14.12s25.96-6.65,25.96-23.06c0-17.24-3.32-22.22-30.32-32.4-6.23-2.28-19.52-8.93-30.12-18.07-7.27-6.44-10.39-17.45-10.39-29.49,0-12.67,3.12-21.19,15.58-30.53,9.35-7.06,17.24-9.97,29.91-9.97,15.16,0,23.26,2.49,27.62,4.15,2.08.83,3.53.42,4.78-1.04l2.7-2.7c.83-.83,1.87-1.25,3.12-1.25,1.45,0,1.87,2.28,2.08,3.53l3.32,35.52c0,.83-.42,1.04-1.04,1.25l-4.57,1.45c-1.04.42-2.08,0-2.7-1.45-2.28-6.02-5.82-14.12-12.88-21.6-5.19-5.82-11.42-8.72-20.77-8.72-15.58,0-22.02,13.5-22.02,18.9,0,7.69.21,13.92,5.4,19.11,5.4,5.61,17.24,10.59,27.42,13.5,9.97,2.91,18.07,8.1,26.59,15.79,8.1,7.27,11.42,16.41,11.42,30.95,0,25.34-18.07,45.9-45.49,45.9-18.69,0-28.46-3.12-37.18-8.93-2.49-1.66-3.74-2.28-4.78-2.28-1.25,0-2.08,1.45-3.32,3.53-1.25,2.28-2.29,2.49-3.74,2.49-2.28,0-3.12-1.04-2.91-3.32l3.32-39.46c.21-1.45.83-1.45,1.66-1.45l5.4.42Z"/>
        <path class="cls-3" d="M126.11,1262.92c0-7.27-1.45-10.59-5.82-10.59h-9.76c-1.25,0-1.45-.42-1.45-1.87v-4.98c0-1.25.21-1.66,1.87-1.66,2.08,0,12.25.62,34.06.62,18.28,0,28.25-.62,30.53-.62,1.66,0,1.87.42,1.87,1.66v5.4c0,1.04-.21,1.45-1.66,1.45h-7.06c-7.06,0-10.59,3.95-11.01,8.1-.21,2.28-.42,16.41-.42,27v13.71c0,11.01.83,37.39,1.04,44.03.21,9.55,2.08,18.9,6.65,24.72,6.85,8.31,16.62,11.63,25.96,11.63,7.69,0,18.9-3.95,24.51-9.14,8.31-7.48,13.09-18.9,13.09-33.86v-31.99c0-17.45-2.08-40.29-2.91-45.07-.83-5.4-4.15-9.14-7.69-9.14h-6.65c-1.25,0-1.45-.62-1.45-1.66v-5.4c0-1.04.21-1.45,1.45-1.45,2.08,0,11.63.62,25.75.62,11.22,0,17.86-.62,19.73-.62s2.08.83,2.08,1.87v4.57c0,1.25-.21,2.08-1.25,2.08h-6.44c-7.89,0-8.52,5.82-8.93,7.89-.42,2.91-.42,31.57-.42,34.48s-.42,39.26-1.04,47.36c-1.25,17.03-6.85,30.12-17.65,39.67-9.14,8.1-23.26,12.88-36.76,12.88-9.76,0-23.06-1.45-31.78-5.19-9.97-4.36-19.11-14.12-24.09-27.42-3.53-8.93-4.36-22.85-4.36-50.06v-49.02Z"/>
        <path class="cls-3" d="M285.21,1296.98c0-15.37,0-28.66-.21-34.27-.21-6.85-2.91-10.38-5.82-10.38h-8.31c-1.04,0-1.25-.62-1.25-1.45v-5.61c0-1.04.21-1.45,1.25-1.45,1.87,0,8.31.62,30.95.62,11.63,0,29.91-.62,38.42-.62,16.2,0,28.25,5.82,36.76,13.71,7.48,6.85,11.84,14.95,11.84,22.64,0,26.38-19.73,38.22-38.01,39.88v1.45c6.44,2.08,9.76,6.02,13.71,11.01,2.7,3.32,14.12,21.81,15.79,24.3,1.25,1.87,12.46,17.65,16.62,22.43,2.49,2.7,10.39,4.36,15.16,4.36,1.45,0,1.66.83,1.66,1.66v4.98c0,1.25-.21,1.87-1.66,1.87-1.66,0-7.06-.62-23.06-.62-6.02,0-13.71.42-19.73.62-6.23-4.78-19.11-28.87-22.64-35.93-7.06-14.12-15.58-29.49-25.55-29.49h-7.06v10.59c0,12.25.62,35.52,1.04,38.22.42,4.36,2.08,8.1,5.19,8.1h8.52c1.45,0,1.66.62,1.66,1.66v4.98c0,1.45-.21,1.87-3.32,1.87-.21,0-5.4-.62-27.21-.62s-26.79.62-29.08.62c-1.66,0-1.66-.62-1.66-2.08v-4.78c0-1.04,0-1.66,1.04-1.66h6.23c4.57,0,8.31-1.45,8.31-6.65.42-20.56.42-40.09.42-59.82v-20.15ZM314.29,1319.41c3.95.21,6.44.21,8.31.21,27.42,0,33.86-26.17,33.86-35.93s-3.32-18.69-7.89-23.26c-7.48-6.65-16.82-9.14-23.06-9.14-3.53,0-6.23.42-7.89,1.87-1.25.83-1.87,3.12-2.28,5.61l-1.04,60.65Z"/>
        <path class="cls-3" d="M562.29,1371.34c0,2.91.83,4.98.83,6.65s-1.25,2.49-3.32,3.32c-16.82,8.52-34.48,13.29-60.86,13.29-21.6,0-45.9-6.85-60.23-23.68-12.67-14.33-19.11-31.99-19.11-57.12,0-18.9,8.93-39.05,24.09-52.13,15.16-13.29,33.86-20.35,58.78-20.35,20.98,0,36.56,5.82,43.41,10.18,2.49,1.45,3.95,1.04,5.19-.62l2.08-3.32c1.04-1.45,1.45-2.08,2.7-2.08,2.28,0,2.91,1.45,2.91,3.74l3.12,42.79c.21,2.49,0,3.53-.83,3.74l-5.82,1.25c-1.25.21-1.87-.21-2.49-2.08-3.32-10.18-9.97-23.47-18.9-31.57-8.1-7.69-18.69-12.88-32.82-12.88-11.22,0-21.6,3.53-31.36,15.58-9.55,11.42-16.62,28.66-16.62,47.36,0,24.51,6.85,45.9,18.07,57.12,9.76,9.76,17.65,14.12,31.78,14.12,10.8,0,16.62-.83,23.47-4.15,4.36-2.08,4.78-8.72,4.78-19.52v-14.95c0-7.48-2.08-9.55-7.27-9.55h-8.72c-1.25,0-1.45-.83-1.45-1.87v-5.19c0-.83.21-1.45,1.45-1.45,1.87,0,12.05.62,30.74.62s26.79-.62,28.46-.62,1.87.62,1.87,1.66v5.19c0,1.25-.21,1.66-1.45,1.66h-6.02c-3.74,0-6.44,1.45-6.44,7.48v27.42Z"/>
        <path class="cls-3" d="M611.1,1304.46c0-4.98-.62-42.37-.83-45.07-.42-4.98-2.49-7.06-6.85-7.06h-9.97c-1.04,0-1.66-.42-1.66-1.25v-6.02c0-.83.62-1.25,1.45-1.25,2.49,0,13.08.62,33.44.62s27.83-.62,30.74-.62c1.04,0,1.45.62,1.45,1.87v5.19c0,1.04-.62,1.45-1.66,1.45h-6.02c-5.19,0-8.31,1.66-8.31,5.4,0,2.08-.62,47.98-.62,50.47v15.99c0,2.08.62,50.06.62,51.93,0,6.44,3.12,7.48,7.06,7.48h8.52c1.04,0,1.66.42,1.66,1.45v5.82c0,.83-.62,1.25-1.87,1.25-2.49,0-10.8-.62-30.53-.62-21.81,0-30.74.62-33.02.62-1.04,0-1.66-.42-1.66-1.66v-5.61c0-.83.62-1.25,1.66-1.25h6.02c4.15,0,8.52-.62,9.35-5.61.42-3.12,1.04-47.98,1.04-58.99v-14.54Z"/>
        <path class="cls-3" d="M702.91,1375.49c-15.37-13.71-22.64-37.59-22.64-55.46,0-21.39,6.85-40.71,21.39-56.29,11.84-12.67,29.08-22.43,54.83-22.43,18.9,0,34.48,4.78,41.75,8.72,2.91,1.45,3.95,1.25,4.36-.21l1.66-5.19c.42-1.25.83-1.25,3.95-1.25s3.53.42,3.53,3.32c0,3.95,3.74,39.26,4.78,45.49.21,1.45,0,2.49-1.04,2.7l-4.57,1.25c-1.04.42-1.87-.42-2.49-2.28-2.28-8.31-7.89-18.9-16.62-27.83-8.93-8.72-19.94-15.58-35.72-15.58-30.32,0-43.2,27.62-42.99,58.36,0,13.08,3.74,38.63,18.49,54.21,13.5,13.92,25.34,15.58,32.4,15.58,23.68,0,41.33-10.8,49.02-22.22,1.04-1.66,2.08-2.49,3.12-1.66l3.53,3.12c.62.42.83,1.25,0,2.49-12.05,17.45-32.19,34.27-61.48,34.27-27.62,0-42.16-7.48-55.25-19.11Z"/>
        <path class="cls-3" d="M864.3,1334.57c-1.66,4.36-11.84,32.82-11.84,39.46,0,4.57,1.87,9.55,8.1,9.55h7.27c2.08,0,2.28.83,2.28,1.66v4.57c0,1.66-.21,2.28-1.87,2.28-2.7,0-11.22-.62-28.25-.62-15.16,0-19.73.62-22.64.62-1.25,0-1.45-1.25-1.45-2.7v-3.95c0-1.25.21-1.87,1.45-1.87h5.4c4.98,0,9.97-2.91,14.12-9.14,2.91-4.36,17.66-40.5,24.51-58.78,1.66-4.15,18.49-48.81,20.36-54.42.62-2.08,1.66-4.78.21-7.06-.62-.83-1.45-1.87-1.45-2.7,0-.62.42-1.45,2.08-1.87,6.65-1.45,20.15-6.85,23.26-10.39,1.04-1.04,1.66-1.87,2.7-1.87,1.25,0,1.66,1.25,2.28,3.53,3.95,13.09,20.15,59.61,24.09,72.9,4.78,16.2,18.28,54.83,21.19,60.44,3.53,6.85,8.93,9.35,12.05,9.35h7.06c1.25,0,1.45.83,1.45,1.87v3.95c0,1.25-.21,2.7-1.87,2.7-3.95,0-8.31-.62-34.89-.62-17.24,0-24.51.62-28.66.62-2.08,0-2.28-1.25-2.28-2.7v-3.95c0-1.04.21-1.87,1.25-1.87h5.82c5.61,0,7.48-2.08,6.23-7.48-1.87-7.48-9.97-34.06-12.46-41.54h-45.49ZM907.92,1326.27l-15.58-55.04c-.83-3.12-1.25-4.57-2.29-4.57-1.25,0-1.87.83-2.49,2.7-1.04,2.7-18.9,51.72-20.56,56.91h40.92Z"/>
        <path class="cls-3" d="M1030.67,1326.47c0,3.53,0,48.39.62,56.7h11.84c9.76,0,19.11,0,30.32-1.04s25.34-25.96,28.46-33.65c.62-1.25,1.25-1.87,2.49-1.25l4.15,1.66c.62.42.62.62.42,1.87-.62,1.45-8.93,35.72-10.18,41.33-5.4-.42-65.22-.62-84.33-.62-20.56,0-28.04.62-30.74.62-1.45,0-1.66-.42-1.66-1.87v-5.19c0-1.04.21-1.45,1.45-1.45h6.44c7.68,0,8.93-2.91,8.93-5.19,0-3.95.62-55.66.62-68.33v-11.63c0-13.29-.42-35.31-.62-38.63-.42-5.4-1.45-7.48-6.23-7.48h-7.69c-1.25,0-1.45-1.04-1.45-2.08v-4.98c0-1.04.21-1.45,1.45-1.45,2.29,0,9.76.62,28.66.62,24.3,0,33.02-.62,34.89-.62,1.66,0,1.87.62,1.87,2.08v4.78c0,1.04-.42,1.66-2.08,1.66h-9.76c-6.44,0-7.27,2.08-7.27,7.69,0,2.7-.62,34.06-.62,48.6v17.86Z"/>
        <path class="cls-3" d="M1179.39,1296.98c0-15.37,0-28.66-.21-34.27-.21-6.85-2.91-10.38-5.82-10.38h-8.31c-1.04,0-1.25-.62-1.25-1.45v-5.61c0-1.04.21-1.45,1.25-1.45,1.87,0,8.31.62,30.95.62,11.63,0,29.91-.62,38.42-.62,16.2,0,28.25,5.82,36.76,13.71,7.48,6.85,11.84,14.95,11.84,22.64,0,26.38-19.73,38.22-38.01,39.88v1.45c6.44,2.08,9.76,6.02,13.71,11.01,2.7,3.32,14.12,21.81,15.79,24.3,1.25,1.87,12.46,17.65,16.62,22.43,2.49,2.7,10.39,4.36,15.16,4.36,1.45,0,1.66.83,1.66,1.66v4.98c0,1.25-.21,1.87-1.66,1.87-1.66,0-7.06-.62-23.05-.62-6.02,0-13.71.42-19.73.62-6.23-4.78-19.11-28.87-22.64-35.93-7.06-14.12-15.58-29.49-25.55-29.49h-7.06v10.59c0,12.25.62,35.52,1.04,38.22.42,4.36,2.08,8.1,5.19,8.1h8.52c1.45,0,1.66.62,1.66,1.66v4.98c0,1.45-.21,1.87-3.32,1.87-.21,0-5.4-.62-27.21-.62s-26.79.62-29.08.62c-1.66,0-1.66-.62-1.66-2.08v-4.78c0-1.04,0-1.66,1.04-1.66h6.23c4.57,0,8.31-1.45,8.31-6.65.42-20.56.42-40.09.42-59.82v-20.15ZM1208.47,1319.41c3.95.21,6.44.21,8.31.21,27.42,0,33.86-26.17,33.86-35.93s-3.32-18.69-7.89-23.26c-7.48-6.65-16.82-9.14-23.05-9.14-3.53,0-6.23.42-7.89,1.87-1.25.83-1.87,3.12-2.28,5.61l-1.04,60.65Z"/>
        <path class="cls-3" d="M1361.14,1311.93c9.55,0,18.69-.62,21.19-1.25,3.53-.83,6.44-2.7,9.55-6.44,2.29-3.12,4.78-8.93,4.78-12.88,0-1.45.62-1.87,1.66-1.87l5.61.62c1.04.21,1.87.42,1.66,1.66-.62,3.53-.62,14.33-.62,21.6,0,9.35.83,19.32,1.25,23.68.21,1.25-.62,1.45-1.66,1.66l-4.98,1.04c-.83.21-1.25-.21-1.66-1.66-.83-3.32-2.91-8.1-4.15-10.59-2.28-3.95-7.27-6.65-11.42-7.27-5.61-.83-12.05-1.25-21.19-1.25v12.46c0,11.22,1.04,31.36,1.04,35.1,0,10.8,2.28,14.54,4.98,15.79,3.12,1.25,7.06,1.87,17.45,1.87,3.53,0,12.25-.21,16.62-.62,4.15-.42,10.38-2.49,15.79-6.85s17.03-17.24,21.19-22.22c.83-.83,1.45-1.04,2.08-.62l3.53,2.08c.83.42,1.04,1.04.83,1.66l-9.35,31.36c-.62,1.87-2.08,3.12-4.57,3.12-1.04,0-5.61-.21-18.9-.42-13.5,0-35.52-.21-71.45-.21-7.69,0-13.5.21-17.66.21-4.36.21-7.06.42-8.93.42-1.45,0-1.87-.62-1.87-2.28v-4.36c0-1.25.62-1.87,2.08-1.87h6.23c9.55,0,10.38-1.45,10.38-8.72v-69.58c0-17.24-.42-42.79-.62-44.86-.83-6.65-2.91-8.1-8.52-8.1h-8.1c-.83,0-1.04-.62-1.04-2.08v-4.98c0-.62.21-1.45,1.45-1.45,4.57,0,11.84.62,30.74.62l72.9-.21c3.32,0,7.27-.42,8.31-.42s1.45.42,1.66,1.04c.83,2.91,7.68,31.36,8.52,33.44.42,1.04.42,1.45-.62,2.08l-3.32,1.66c-.83.42-1.87.21-2.49-.83-1.04-1.66-19.73-20.35-24.51-23.26-4.36-2.7-10.18-5.4-15.79-5.61l-27.42-.83-.62,60.44Z"/>
        <path class="cls-3" d="M1481.81,1375.49c-15.37-13.71-22.64-37.59-22.64-55.46,0-21.39,6.85-40.71,21.39-56.29,11.84-12.67,29.08-22.43,54.83-22.43,18.9,0,34.48,4.78,41.75,8.72,2.91,1.45,3.95,1.25,4.36-.21l1.66-5.19c.42-1.25.83-1.25,3.95-1.25s3.53.42,3.53,3.32c0,3.95,3.74,39.26,4.78,45.49.21,1.45,0,2.49-1.04,2.7l-4.57,1.25c-1.04.42-1.87-.42-2.49-2.28-2.28-8.31-7.89-18.9-16.62-27.83-8.93-8.72-19.94-15.58-35.72-15.58-30.32,0-43.2,27.62-42.99,58.36,0,13.08,3.74,38.63,18.49,54.21,13.5,13.92,25.34,15.58,32.4,15.58,23.68,0,41.33-10.8,49.02-22.22,1.04-1.66,2.08-2.49,3.12-1.66l3.53,3.12c.62.42.83,1.25,0,2.49-12.05,17.45-32.19,34.27-61.48,34.27-27.62,0-42.16-7.48-55.25-19.11Z"/>
        <path class="cls-3" d="M1641.75,1381.1c-14.75-8.93-30.53-31.36-30.53-61.69,0-12.67,3.32-32.4,19.32-51.72,18.28-22.22,41.75-26.38,60.44-26.38,17.24,0,33.23,2.7,50.68,16.41,15.79,12.46,28.46,33.44,28.46,62.1,0,15.16-4.78,30.95-15.58,45.49-13.5,16.82-31.16,29.29-63.97,29.29-14.33,0-32.4-3.32-48.81-13.5ZM1737.5,1321.49c0-45.49-29.91-70.41-47.36-70.41-4.15,0-14.54-1.04-27.21,11.22-12.25,11.63-18.49,33.44-18.49,50.47,0,53.17,30.53,72.07,47.77,72.07,38.42,0,45.28-46.32,45.28-63.35Z"/>
        <path class="cls-3" d="M1873.14,1245.26c0-1.04.21-1.45,1.25-1.45,1.87,0,11.42.62,25.34.62,19.32,0,24.51-.62,26.38-.62,1.25,0,1.45.42,1.45,1.87v5.19c0,.83-.21,1.45-1.45,1.45h-4.78c-3.53,0-9.97,1.45-15.37,10.8-8.31,14.12-17.24,38.63-25.13,56.08-5.19,11.22-28.66,66.88-32.19,72.9-1.45,2.49-2.49,3.53-4.78,3.53-2.7,0-3.53-2.49-4.78-5.19-7.68-16.41-26.59-66.67-32.4-81s-16.2-44.45-18.69-50.26c-2.08-4.78-4.57-6.85-8.93-6.85h-5.4c-.83,0-1.04-1.04-1.04-2.08v-4.98c0-1.04.21-1.45,1.45-1.45,2.08,0,8.93.62,33.86.62,21.6,0,30.95-.62,32.82-.62s2.08.62,2.08,1.87v4.78c0,1.04-.21,1.87-1.66,1.87h-8.93c-4.99,0-8.93,2.28-8.93,4.98,0,1.66,0,4.15.62,7.06,1.66,7.48,9.55,32.19,13.92,44.24l15.79,46.32h.83c6.02-13.92,16.2-39.88,18.9-47.36,3.95-10.18,10.38-27.62,13.71-36.97,2.08-5.4,2.08-8.93,2.08-11.42s-2.49-6.85-8.52-6.85h-6.44c-.83,0-1.04-.62-1.04-1.87v-5.19Z"/>
        <path class="cls-3" d="M1974.08,1311.93c9.55,0,18.69-.62,21.19-1.25,3.53-.83,6.44-2.7,9.55-6.44,2.29-3.12,4.78-8.93,4.78-12.88,0-1.45.62-1.87,1.66-1.87l5.61.62c1.04.21,1.87.42,1.66,1.66-.62,3.53-.62,14.33-.62,21.6,0,9.35.83,19.32,1.25,23.68.21,1.25-.62,1.45-1.66,1.66l-4.98,1.04c-.83.21-1.25-.21-1.66-1.66-.83-3.32-2.91-8.1-4.15-10.59-2.28-3.95-7.27-6.65-11.42-7.27-5.61-.83-12.05-1.25-21.19-1.25v12.46c0,11.22,1.04,31.36,1.04,35.1,0,10.8,2.28,14.54,4.98,15.79,3.12,1.25,7.06,1.87,17.45,1.87,3.53,0,12.25-.21,16.62-.62,4.15-.42,10.38-2.49,15.79-6.85s17.03-17.24,21.19-22.22c.83-.83,1.45-1.04,2.08-.62l3.53,2.08c.83.42,1.04,1.04.83,1.66l-9.35,31.36c-.62,1.87-2.08,3.12-4.57,3.12-1.04,0-5.61-.21-18.9-.42-13.5,0-35.52-.21-71.45-.21-7.69,0-13.5.21-17.66.21-4.36.21-7.06.42-8.93.42-1.45,0-1.87-.62-1.87-2.28v-4.36c0-1.25.62-1.87,2.08-1.87h6.23c9.55,0,10.38-1.45,10.38-8.72v-69.58c0-17.24-.42-42.79-.62-44.86-.83-6.65-2.91-8.1-8.52-8.1h-8.1c-.83,0-1.04-.62-1.04-2.08v-4.98c0-.62.21-1.45,1.45-1.45,4.57,0,11.84.62,30.74.62l72.9-.21c3.32,0,7.27-.42,8.31-.42s1.45.42,1.66,1.04c.83,2.91,7.68,31.36,8.52,33.44.42,1.04.42,1.45-.62,2.08l-3.32,1.66c-.83.42-1.87.21-2.49-.83-1.04-1.66-19.73-20.35-24.51-23.26-4.36-2.7-10.18-5.4-15.79-5.61l-27.42-.83-.62,60.44Z"/>
        <path class="cls-3" d="M2084.17,1296.98c0-15.37,0-28.66-.21-34.27-.21-6.85-2.91-10.38-5.82-10.38h-8.31c-1.04,0-1.25-.62-1.25-1.45v-5.61c0-1.04.21-1.45,1.25-1.45,1.87,0,8.31.62,30.95.62,11.63,0,29.91-.62,38.42-.62,16.2,0,28.25,5.82,36.76,13.71,7.48,6.85,11.84,14.95,11.84,22.64,0,26.38-19.73,38.22-38.01,39.88v1.45c6.44,2.08,9.76,6.02,13.71,11.01,2.7,3.32,14.12,21.81,15.79,24.3,1.25,1.87,12.46,17.65,16.62,22.43,2.49,2.7,10.38,4.36,15.16,4.36,1.45,0,1.66.83,1.66,1.66v4.98c0,1.25-.21,1.87-1.66,1.87-1.66,0-7.06-.62-23.05-.62-6.02,0-13.71.42-19.73.62-6.23-4.78-19.11-28.87-22.64-35.93-7.06-14.12-15.58-29.49-25.55-29.49h-7.06v10.59c0,12.25.62,35.52,1.04,38.22.42,4.36,2.08,8.1,5.19,8.1h8.52c1.45,0,1.66.62,1.66,1.66v4.98c0,1.45-.21,1.87-3.32,1.87-.21,0-5.4-.62-27.21-.62s-26.79.62-29.08.62c-1.66,0-1.66-.62-1.66-2.08v-4.78c0-1.04,0-1.66,1.04-1.66h6.23c4.57,0,8.31-1.45,8.31-6.65.42-20.56.42-40.09.42-59.82v-20.15ZM2113.25,1319.41c3.95.21,6.44.21,8.31.21,27.42,0,33.86-26.17,33.86-35.93s-3.32-18.69-7.89-23.26c-7.48-6.65-16.82-9.14-23.05-9.14-3.53,0-6.23.42-7.89,1.87-1.25.83-1.87,3.12-2.29,5.61l-1.04,60.65Z"/>
        <path class="cls-3" d="M2283.36,1352.85c0,8.1.62,21.6.83,23.47.62,6.65,3.74,7.27,7.06,7.27h6.02c1.45,0,1.45.62,1.45,1.45v5.19c0,1.25,0,1.87-1.45,1.87-2.49,0-10.59-.62-30.12-.62-21.6,0-28.04.62-30.33.62-.83,0-1.25-.62-1.25-2.08v-4.98c0-.83.21-1.45,1.45-1.45h7.27c5.4,0,7.06-2.08,7.27-4.78.21-2.91.62-19.32.62-38.63v-8.93c-3.32-6.44-36.56-67.09-41.75-74.15-2.49-3.12-7.48-4.78-10.8-4.78h-3.12c-1.25,0-1.45-.62-1.45-1.45v-5.82c0-.83.21-1.25,1.45-1.25,1.87,0,11.63.62,30.12.62,21.39,0,28.87-.62,30.95-.62,1.25,0,1.45.42,1.45,1.45v5.19c0,1.04-.21,1.87-1.45,1.87h-4.78c-2.91,0-4.98,2.08-4.98,5.4,0,3.74,24.72,51.3,30.32,63.35,6.23-11.42,31.16-55.25,31.16-61.69,0-3.53-3.53-7.06-7.89-7.06h-5.61c-1.25,0-1.45-.62-1.45-1.87v-5.4c0-.83.21-1.25,1.45-1.25,2.08,0,10.59.62,25.96.62,14.33,0,18.9-.62,20.77-.62,1.45,0,1.66.42,1.66,1.66v4.98c0,1.25-.21,1.87-1.66,1.87h-3.74c-2.49,0-8.72,1.25-11.84,4.98-2.7,3.32-35.1,56.5-43.62,72.49v23.05Z"/>
        <path class="cls-3" d="M2396.56,1345.58c.83,0,1.45.21,1.45,1.66.42,6.44,3.32,15.37,8.31,23.47,6.02,9.55,16.2,14.12,26.17,14.12s25.96-6.65,25.96-23.06c0-17.24-3.32-22.22-30.32-32.4-6.23-2.28-19.52-8.93-30.12-18.07-7.27-6.44-10.38-17.45-10.38-29.49,0-12.67,3.12-21.19,15.58-30.53,9.35-7.06,17.24-9.97,29.91-9.97,15.16,0,23.26,2.49,27.62,4.15,2.08.83,3.53.42,4.78-1.04l2.7-2.7c.83-.83,1.87-1.25,3.12-1.25,1.45,0,1.87,2.28,2.08,3.53l3.32,35.52c0,.83-.42,1.04-1.04,1.25l-4.57,1.45c-1.04.42-2.08,0-2.7-1.45-2.29-6.02-5.82-14.12-12.88-21.6-5.19-5.82-11.42-8.72-20.77-8.72-15.58,0-22.02,13.5-22.02,18.9,0,7.69.21,13.92,5.4,19.11,5.4,5.61,17.24,10.59,27.42,13.5,9.97,2.91,18.07,8.1,26.59,15.79,8.1,7.27,11.42,16.41,11.42,30.95,0,25.34-18.07,45.9-45.49,45.9-18.69,0-28.46-3.12-37.18-8.93-2.49-1.66-3.74-2.28-4.78-2.28-1.25,0-2.08,1.45-3.32,3.53-1.25,2.28-2.29,2.49-3.74,2.49-2.28,0-3.12-1.04-2.91-3.32l3.32-39.46c.21-1.45.83-1.45,1.66-1.45l5.4.42Z"/>
        <path class="cls-3" d="M2571.45,1352.85c0,8.1.62,21.6.83,23.47.62,6.65,3.74,7.27,7.06,7.27h6.02c1.45,0,1.45.62,1.45,1.45v5.19c0,1.25,0,1.87-1.45,1.87-2.49,0-10.59-.62-30.12-.62-21.6,0-28.04.62-30.33.62-.83,0-1.25-.62-1.25-2.08v-4.98c0-.83.21-1.45,1.45-1.45h7.27c5.4,0,7.06-2.08,7.27-4.78.21-2.91.62-19.32.62-38.63v-8.93c-3.32-6.44-36.56-67.09-41.75-74.15-2.49-3.12-7.48-4.78-10.8-4.78h-3.12c-1.25,0-1.45-.62-1.45-1.45v-5.82c0-.83.21-1.25,1.45-1.25,1.87,0,11.63.62,30.12.62,21.39,0,28.87-.62,30.95-.62,1.25,0,1.45.42,1.45,1.45v5.19c0,1.04-.21,1.87-1.45,1.87h-4.78c-2.91,0-4.98,2.08-4.98,5.4,0,3.74,24.72,51.3,30.32,63.35,6.23-11.42,31.16-55.25,31.16-61.69,0-3.53-3.53-7.06-7.89-7.06h-5.61c-1.25,0-1.45-.62-1.45-1.87v-5.4c0-.83.21-1.25,1.45-1.25,2.08,0,10.59.62,25.96.62,14.33,0,18.9-.62,20.77-.62,1.45,0,1.66.42,1.66,1.66v4.98c0,1.25-.21,1.87-1.66,1.87h-3.74c-2.49,0-8.72,1.25-11.84,4.98-2.7,3.32-35.1,56.5-43.62,72.49v23.05Z"/>
        <path class="cls-3" d="M2643.11,1345.58c.83,0,1.45.21,1.45,1.66.42,6.44,3.32,15.37,8.31,23.47,6.02,9.55,16.2,14.12,26.17,14.12s25.96-6.65,25.96-23.06c0-17.24-3.32-22.22-30.32-32.4-6.23-2.28-19.52-8.93-30.12-18.07-7.27-6.44-10.38-17.45-10.38-29.49,0-12.67,3.12-21.19,15.58-30.53,9.35-7.06,17.24-9.97,29.91-9.97,15.16,0,23.26,2.49,27.62,4.15,2.08.83,3.53.42,4.78-1.04l2.7-2.7c.83-.83,1.87-1.25,3.12-1.25,1.45,0,1.87,2.28,2.08,3.53l3.32,35.52c0,.83-.42,1.04-1.04,1.25l-4.57,1.45c-1.04.42-2.08,0-2.7-1.45-2.29-6.02-5.82-14.12-12.88-21.6-5.19-5.82-11.42-8.72-20.77-8.72-15.58,0-22.02,13.5-22.02,18.9,0,7.69.21,13.92,5.4,19.11,5.4,5.61,17.24,10.59,27.42,13.5,9.97,2.91,18.07,8.1,26.59,15.79,8.1,7.27,11.42,16.41,11.42,30.95,0,25.34-18.07,45.9-45.49,45.9-18.69,0-28.46-3.12-37.18-8.93-2.49-1.66-3.74-2.28-4.78-2.28-1.25,0-2.08,1.45-3.32,3.53-1.25,2.28-2.29,2.49-3.74,2.49-2.28,0-3.12-1.04-2.91-3.32l3.32-39.46c.21-1.45.83-1.45,1.66-1.45l5.4.42Z"/>
        <path class="cls-3" d="M2800.34,1253.99h-7.27c-6.65,0-19.11.21-27.83,3.32-4.57,3.32-13.71,15.99-18.9,23.47-.62,1.04-1.25,1.66-2.08,1.45l-4.57-1.66c-.83-.21-1.04-1.25-.83-1.87,2.29-8.72,9.14-36.14,9.97-40.29.62-2.7,1.66-3.53,3.12-3.53s2.08.83,3.95,3.12c2.28,2.91,6.23,4.78,13.71,5.19,11.01.62,19.73,1.25,41.33,1.25h12.05c22.64,0,31.57-.83,40.29-1.25,4.57-.21,12.67-2.7,15.16-5.19,2.08-2.08,3.32-3.12,4.78-3.12s2.08.83,2.49,3.32l6.23,41.33c.21.83-.21,1.66-.83,1.87l-4.36,1.66c-.83.21-1.25-.42-2.08-1.87-4.57-7.48-12.67-18.28-17.86-23.26-5.19-3.12-23.68-3.95-28.46-3.95h-6.85v57.12c0,2.91,0,61.06.21,64.18.42,5.19,2.08,8.31,7.06,8.31h9.35c1.87,0,2.08.62,2.08,2.08v4.78c0,1.04-.21,1.66-2.08,1.66-2.08,0-8.72-.62-31.78-.62s-30.74.62-33.65.62c-1.66,0-1.87-.83-1.87-2.49v-3.95c0-1.45.21-2.08,1.45-2.08h10.59c4.15,0,6.65-2.49,7.06-6.23.42-4.36.42-68.13.42-72.07v-51.3Z"/>
        <path class="cls-3" d="M2952.79,1311.93c9.55,0,18.69-.62,21.19-1.25,3.53-.83,6.44-2.7,9.55-6.44,2.29-3.12,4.78-8.93,4.78-12.88,0-1.45.62-1.87,1.66-1.87l5.61.62c1.04.21,1.87.42,1.66,1.66-.62,3.53-.62,14.33-.62,21.6,0,9.35.83,19.32,1.25,23.68.21,1.25-.62,1.45-1.66,1.66l-4.98,1.04c-.83.21-1.25-.21-1.66-1.66-.83-3.32-2.91-8.1-4.15-10.59-2.28-3.95-7.27-6.65-11.42-7.27-5.61-.83-12.05-1.25-21.19-1.25v12.46c0,11.22,1.04,31.36,1.04,35.1,0,10.8,2.28,14.54,4.98,15.79,3.12,1.25,7.06,1.87,17.45,1.87,3.53,0,12.25-.21,16.62-.62,4.15-.42,10.38-2.49,15.79-6.85s17.03-17.24,21.19-22.22c.83-.83,1.45-1.04,2.08-.62l3.53,2.08c.83.42,1.04,1.04.83,1.66l-9.35,31.36c-.62,1.87-2.08,3.12-4.57,3.12-1.04,0-5.61-.21-18.9-.42-13.5,0-35.52-.21-71.45-.21-7.69,0-13.5.21-17.66.21-4.36.21-7.06.42-8.93.42-1.45,0-1.87-.62-1.87-2.28v-4.36c0-1.25.62-1.87,2.08-1.87h6.23c9.55,0,10.38-1.45,10.38-8.72v-69.58c0-17.24-.42-42.79-.62-44.86-.83-6.65-2.91-8.1-8.52-8.1h-8.1c-.83,0-1.04-.62-1.04-2.08v-4.98c0-.62.21-1.45,1.45-1.45,4.57,0,11.84.62,30.74.62l72.9-.21c3.32,0,7.27-.42,8.31-.42s1.45.42,1.66,1.04c.83,2.91,7.68,31.36,8.52,33.44.42,1.04.42,1.45-.62,2.08l-3.32,1.66c-.83.42-1.87.21-2.49-.83-1.04-1.66-19.73-20.35-24.51-23.26-4.36-2.7-10.18-5.4-15.79-5.61l-27.42-.83-.62,60.44Z"/>
        <path class="cls-3" d="M3072.43,1364.28c.62,7.69,3.95,19.32,10.8,19.32h8.1c1.25,0,1.45.62,1.45,1.45v5.61c0,.83-.21,1.45-1.87,1.45-2.28,0-7.89-.62-23.05-.62-17.66,0-24.92.62-26.79.62-1.66,0-1.87-.21-1.87-1.87v-5.4c0-.62.21-1.25,1.25-1.25h8.52c6.65,0,9.14-9.55,9.97-16.2,1.87-14.75,3.74-63.77,3.74-67.5l-.21-31.78c0-9.55-2.08-15.79-11.42-15.79h-6.85c-1.25,0-1.45-.62-1.45-1.45v-5.82c0-.62.21-1.25,1.45-1.25,2.08,0,7.69.62,32.19.62,9.76,0,16.2-.62,18.69-.62,2.08,0,3.74.21,4.98,3.53,13.29,35.31,28.25,69.79,39.88,100.94,2.29-3.95,18.07-42.58,19.32-45.49.83-2.08,21.6-51.72,22.64-55.87.62-2.28,3.32-2.49,9.55-2.49,32.4,0,39.46-.62,41.75-.62,1.04,0,1.25.62,1.25,1.87v4.78c0,1.25-.21,1.87-1.66,1.87h-9.14c-4.78,0-5.4,3.74-5.4,8.1,0,3.12.21,54.21.42,58.57,0,4.15.62,49.64.62,53.38,0,7.89,1.87,11.22,4.78,11.22h9.97c1.25,0,1.45.62,1.45,1.45v5.19c0,1.25-.21,1.87-1.87,1.87-2.49,0-6.23-.62-30.74-.62-21.19,0-29.29.62-31.99.62-1.45,0-1.66-.62-1.66-1.87v-5.19c0-1.04.21-1.45,1.66-1.45h11.63c3.53,0,5.4-1.25,5.82-7.06.21-2.49.83-40.29.83-54.83v-63.35h-1.25c-2.08,3.53-25.34,60.03-29.08,68.54-4.36,9.55-22.85,55.66-23.89,57.53-1.04,1.66-2.49,4.78-4.99,4.78-1.45,0-2.7-1.45-3.74-3.74-.62-1.45-28.04-65.84-29.49-69.58-3.74-9.55-22.85-56.08-24.51-58.57-.83,2.91-1.25,55.46-1.25,57.95s.21,30.74,1.45,49.02Z"/>
        <path class="cls-3" d="M3264.56,1345.58c.83,0,1.45.21,1.45,1.66.42,6.44,3.32,15.37,8.31,23.47,6.02,9.55,16.2,14.12,26.17,14.12s25.96-6.65,25.96-23.06c0-17.24-3.32-22.22-30.32-32.4-6.23-2.28-19.52-8.93-30.12-18.07-7.27-6.44-10.38-17.45-10.38-29.49,0-12.67,3.12-21.19,15.58-30.53,9.35-7.06,17.24-9.97,29.91-9.97,15.16,0,23.26,2.49,27.62,4.15,2.08.83,3.53.42,4.78-1.04l2.7-2.7c.83-.83,1.87-1.25,3.12-1.25,1.45,0,1.87,2.28,2.08,3.53l3.32,35.52c0,.83-.42,1.04-1.04,1.25l-4.57,1.45c-1.04.42-2.08,0-2.7-1.45-2.29-6.02-5.82-14.12-12.88-21.6-5.19-5.82-11.42-8.72-20.77-8.72-15.58,0-22.02,13.5-22.02,18.9,0,7.69.21,13.92,5.4,19.11,5.4,5.61,17.24,10.59,27.42,13.5,9.97,2.91,18.07,8.1,26.59,15.79,8.1,7.27,11.42,16.41,11.42,30.95,0,25.34-18.07,45.9-45.49,45.9-18.69,0-28.46-3.12-37.18-8.93-2.49-1.66-3.74-2.28-4.78-2.28-1.25,0-2.08,1.45-3.32,3.53-1.25,2.28-2.29,2.49-3.74,2.49-2.28,0-3.12-1.04-2.91-3.32l3.32-39.46c.21-1.45.83-1.45,1.66-1.45l5.4.42Z"/>
      </g>
      <g>
        <g>
          <path class="cls-2" d="M1640.97,571.79c-49.06-16.8-277.34-112.73-406.18-41.59-33.28,18.38-55.81,40.18-74.71,59.57-36.45,35.31-84.09,60.8-133,74.91-119.81,32.69-262.02-1.1-341.88-99.71-61.79-85.19-128.62-152.88-238.16-179.93-37.38-9.23-61.34-11.2-80.71-9.07-34.99,3.85-75.22,19.28-100.37,6.43-104.35-53.33,68.97-307.95,55.22-235.06-58.85,161.17,37.51,156.91,154.19,98.91,65.4-28.24,146.86-29.87,205.91,11.65-15.21-21.11-43.39-32.19-65.48-45.67-33.27-16.02,77.3-47.21,43.2-111.56-17.05-56.36-112.9-75.46-84.47-84.86,109.51-.48,194.03,44.74,180.49,166.52-3.27,47.09-17.97,84.66,10.3,128.21,32.68,53.6,94.5,87.88,153.69,100.89,25.24,5.55,95.38,4.59,78.75,21.48-46.78,47.49-81.68,72.38-136.47,87.51,150.31-12.4,249.09-187.24,400.15-238.66,119.27-40.59,143.72,5.74,216.68,97.23,8.43,9.36,9.4,27.94,1.09,31.42-8.97,3.75-28.48-11.1-39.32-21.36-39.18-33.89-71.26-40.74-113.13-8.33-10.99,5.13-69.45,74.8-68.26,83.49,7.35-10.7,30.24-29.65,40.55-37.7,15.04-12.58,31.69-29.93,52.14-32.62,67.91-.56,134.31,44.13,191.16,77.16,35.62,20.96,75.28,46.27,107.45,72.17,13.09,10.54,13.62,37.03-8.81,28.57ZM1257.61,464.61c-.66.49-.66.8,0,1.29.66-.49.66-.8,0-1.29ZM557.18,48.62c-29.47-58.99-112.55-60.05-162.01-25.9-122.77,87.75,27.22,225.5,134.02,177.15,52.56-28.74,50.62-103.08,27.99-151.25Z"/>
          <path class="cls-1" d="M1257.61,464.61c.66.49.66.8,0,1.29-.66-.49-.66-.8,0-1.29Z"/>
        </g>
        <g>
          <path class="cls-3" d="M13.85,1088.13c-2.72-1.69-10.31-11.49-10.31-19.31v-132.71c0-7.15,12.28-17.11,19.54-11.58,110.08,83.96,318.38,133.8,380.5,53.29,61.53-79.74-77.77-105.83-144.28-113.61-104.75-12.26-241.4-73.8-248.29-183.19-3.12-49.55,2.12-103.08,40.9-147.2,61.15-69.58,149.27-94.51,239.28-97.38,92.87-2.95,173.93,8.53,275.98,39.46,4.24,1.28,8.7,7.26,8.7,15.29,0,19.01-.25,108.1-.25,136.9,0,7.09-15.13,9.18-18.71,6.65-106.08-74.83-321.81-113.66-358.57-27.92-37.93,88.46,141.62,93.67,244.33,122.11,242.96,67.27,199.97,329.8-31.05,394.77-95.95,26.98-332.92,4.76-397.77-35.56Z"/>
          <path class="cls-3" d="M1143.85,1102.4c-2.22-1.38-8.41-9.37-8.41-15.74v-108.18c0-5.83,10.01-13.95,15.93-9.44,89.74,68.44,259.54,109.07,310.18,43.44,50.16-65.01-63.4-86.27-117.62-92.62-85.39-9.99-196.78-60.16-202.4-149.33-2.54-40.39,1.73-84.03,33.34-120,49.85-56.72,121.69-77.05,195.05-79.38,75.71-2.41,141.78,6.95,224.98,32.16,3.45,1.05,7.09,5.91,7.09,12.46,0,15.49-.2,88.12-.2,111.6,0,5.78-12.33,7.48-15.25,5.42-86.47-61-262.34-92.66-292.3-22.76-30.92,72.11,115.44,76.36,199.18,99.54,198.06,54.84,163.01,268.85-25.31,321.81-78.21,22-271.39,3.88-324.25-28.99Z"/>
          <path class="cls-3" d="M1105.82,1126.35c.25.32.28,1.35-1.24,1.35-2.64,0-9.61,0-15.81,0-33.13,0-102.4-.11-110.51-.11-10.96,0-22.42-6.12-29.11-14.15-15.29-18.66-47.84-57.23-63.15-75.26-20.21-19.91-46.18-69.05-78.38-68.87-11.33.63-35.23-4.53-36.2,13.15-2.86,2.46-.94,121.01-1.77,127.43-.38,9.5-6.84,18.14-17.46,18.14-21.27,0-72.6-.3-86.71-.3-7.44,0-17.28-7.41-18.95-15.35l.47-400.78c0-13.6,10.34-13.74,40.57-13.74h202.48c79.86,0,156.4,33.8,156.4,137.69,0,47.29-43.43,82.35-82.33,104.2-3.73,2.12-5.37,7.45-1.31,12.38,21.79,26.52,142.44,173.47,143.02,174.23ZM919.73,836.09c0-44.63-30.8-58.28-61.42-58.28,0,0-79.94.12-79.94.12-10.05,0-10.05.16-10.05,16.65s0,68.42,0,76.78q0,22.9,10.05,22.9h80.48c18.92,0,60.87-24.25,60.87-58.18Z"/>
        </g>
      </g>
    </g>
  </g>
</svg>