<?xml version="1.0" encoding="UTF-8"?>
<svg id="Layer_2" data-name="Layer 2" xmlns="http://www.w3.org/2000/svg" viewBox="0 0 1836.26 1265.76">
  <defs>
    <style>
      .cls-1 {
        fill: #2c68fe;
      }

      .cls-2 {
        fill: #fdfefe;
      }
    </style>
  </defs>
  <g id="Logos">
    <g>
      <g>
        <path class="cls-1" d="M1816.4,634.29c-54.42-18.64-307.65-125.05-450.57-46.13-36.92,20.39-61.91,44.58-82.88,66.08-40.44,39.17-93.28,67.45-147.54,83.1-132.91,36.26-290.66-1.22-379.25-110.61-68.54-94.5-142.68-169.58-264.19-199.6-41.47-10.24-68.04-12.43-89.53-10.06-38.81,4.28-83.44,21.39-111.34,7.13-115.75-59.15,76.51-341.61,61.26-260.75-65.28,178.78,41.61,174.05,171.04,109.73,72.55-31.33,162.91-33.13,228.41,12.92-16.87-23.42-48.14-35.71-72.64-50.66-36.91-17.77,85.74-52.38,47.92-123.75-18.91-62.52-125.24-83.71-93.71-94.14,121.48-.54,215.24,49.63,200.22,184.72-3.63,52.24-19.93,93.91,11.42,142.23,36.25,59.46,104.83,97.49,170.48,111.92,28,6.16,105.81,5.09,87.35,23.83-51.89,52.68-90.6,80.29-151.39,97.08,166.73-13.75,276.31-207.71,443.89-264.75,132.3-45.03,159.43,6.37,240.36,107.85,9.36,10.38,10.43,31,1.21,34.85-9.95,4.16-31.6-12.31-43.61-23.69-43.46-37.59-79.04-45.19-125.49-9.24-12.19,5.69-77.04,82.98-75.72,92.61,8.15-11.86,33.54-32.89,44.98-41.82,16.68-13.96,35.16-33.2,57.84-36.19,75.34-.62,148.99,48.95,212.05,85.59,39.51,23.25,83.51,51.33,119.2,80.06,14.52,11.69,15.11,41.08-9.77,31.7ZM1391.14,515.39c-.73.54-.73.89,0,1.43.73-.54.73-.89,0-1.43Z"/>
        <path class="cls-1" d="M583.11,221.71c-118.47,53.63-284.86-99.17-148.67-196.51,54.87-37.88,147.03-36.71,179.72,28.73,25.11,53.43,27.26,135.9-31.05,167.78Z"/>
        <path class="cls-2" d="M1391.14,515.39c.73.54.73.89,0,1.43-.73-.54-.73-.89,0-1.43Z"/>
      </g>
      <g>
        <path class="cls-1" d="M11.44,1207.06c-3.02-1.88-11.44-12.74-11.44-21.42v-147.21c0-7.93,13.62-18.98,21.67-12.84,122.12,93.14,353.18,148.42,422.09,59.11,68.26-88.46-86.28-117.4-160.05-126.03-116.2-13.59-267.78-81.87-275.43-203.21-3.46-54.97,2.35-114.34,45.37-163.29,67.83-77.19,165.59-104.84,265.43-108.02,103.02-3.28,192.94,9.46,306.15,43.77,4.7,1.42,9.65,8.05,9.65,16.96,0,21.08-.27,119.92-.27,151.86,0,7.87-16.78,10.18-20.75,7.38-117.67-83.01-356.99-126.09-397.76-30.98-42.07,98.13,157.1,103.9,271.04,135.45,269.52,74.62,221.83,365.84-34.45,437.92-106.43,29.93-369.31,5.28-441.24-39.45Z"/>
        <path class="cls-1" d="M1264.94,1222.89c-2.46-1.53-9.33-10.39-9.33-17.46v-120.01c0-6.46,11.1-15.47,17.67-10.47,99.55,75.93,287.91,120.99,344.08,48.18,55.64-72.11-70.33-95.7-130.47-102.74-94.72-11.08-218.29-66.74-224.52-165.65-2.82-44.81,1.92-93.21,36.98-133.11,55.3-62.92,134.99-85.47,216.37-88.06,83.98-2.67,157.28,7.71,249.57,35.68,3.83,1.16,7.86,6.56,7.86,13.82,0,17.19-.22,97.76-.22,123.8,0,6.41-13.68,8.3-16.92,6.01-95.92-67.66-291.01-102.78-324.25-25.25-34.3,80,128.06,84.7,220.95,110.42,219.71,60.83,180.83,298.23-28.08,356.99-86.76,24.4-301.05,4.3-359.69-32.16Z"/>
        <path class="cls-1" d="M1222.77,1249.46c.28.36.31,1.49-1.38,1.49-2.93,0-10.66,0-17.54,0-36.75,0-113.59-.12-122.59-.12-12.16,0-24.88-6.79-32.29-15.7-16.96-20.7-53.07-63.48-70.05-83.49-22.42-22.09-51.23-76.6-86.94-76.4-12.57.7-39.08-5.03-40.16,14.59-3.17,2.72-1.05,134.24-1.97,141.36-.42,10.54-7.58,20.12-19.37,20.12-23.59,0-80.53-.34-96.18-.34-8.25,0-19.16-8.22-21.02-17.02l.52-444.59c0-15.09,11.47-15.24,45-15.24h224.61c88.59,0,173.49,37.49,173.49,152.74,0,52.46-48.18,91.35-91.33,115.58-4.14,2.35-5.95,8.26-1.45,13.74,24.17,29.42,158.01,192.43,158.66,193.27ZM1016.33,927.48c0-49.51-34.17-64.65-68.13-64.65,0,0-88.67.14-88.67.14-11.15,0-11.14.18-11.14,18.47s0,75.9,0,85.17q0,25.4,11.15,25.4h89.28c20.99,0,67.53-26.9,67.53-64.53Z"/>
      </g>
    </g>
  </g>
</svg>