<?xml version="1.0" encoding="UTF-8"?>
<svg id="Layer_2" data-name="Layer 2" xmlns="http://www.w3.org/2000/svg" viewBox="0 0 3401.01 558.96">
  <defs>
    <style>
      .cls-1 {
        fill: none;
        stroke: #2c68fe;
        stroke-miterlimit: 10;
        stroke-width: 5px;
      }

      .cls-2 {
        fill: #2c68fe;
      }
    </style>
  </defs>
  <g id="Logos">
    <g>
      <g>
        <g>
          <path class="cls-2" d="M802.13,280.1c-24.03-8.23-135.86-55.22-198.97-20.37-16.3,9-27.34,19.68-36.6,29.18-17.86,17.3-41.19,29.79-65.15,36.7-58.69,16.01-128.36-.54-167.48-48.85-30.27-41.73-63.01-74.89-116.67-88.14-18.31-4.52-30.05-5.49-39.54-4.44-17.14,1.89-36.85,9.44-49.17,3.15-51.12-26.12,33.79-150.86,27.05-115.15-28.83,78.95,18.38,76.86,75.53,48.45,32.04-13.83,71.94-14.63,100.87,5.71-7.45-10.34-21.26-15.77-32.08-22.37-16.3-7.85,37.86-23.13,21.16-54.65-8.35-27.61-55.3-36.96-41.38-41.57,53.65-.24,95.05,21.92,88.42,81.57-1.6,23.07-8.8,41.47,5.04,62.81,16.01,26.26,46.29,43.05,75.29,49.42,12.36,2.72,46.73,2.25,38.58,10.52-22.92,23.26-40.01,35.45-66.85,42.87,73.63-6.07,122.02-91.73,196.02-116.91,58.42-19.89,70.41,2.81,106.14,47.63,4.13,4.58,4.61,13.69.53,15.39-4.4,1.84-13.95-5.44-19.26-10.46-19.19-16.6-34.91-19.96-55.42-4.08-5.38,2.51-34.02,36.64-33.44,40.9,3.6-5.24,14.81-14.52,19.86-18.47,7.37-6.16,15.52-14.66,25.54-15.98,33.27-.27,65.79,21.62,93.64,37.8,17.45,10.27,36.88,22.67,52.64,35.35,6.41,5.16,6.67,18.14-4.31,14ZM614.33,227.6c-.32.24-.32.39,0,.63.32-.24.32-.39,0-.63Z"/>
          <path class="cls-2" d="M257.5,97.91c-52.32,23.68-125.8-43.79-65.65-86.78,24.23-16.73,64.93-16.21,79.36,12.69,11.09,23.6,12.04,60.01-13.71,74.09Z"/>
          <path class="cls-2" d="M614.33,227.6c.32.24.32.39,0,.63-.32-.24-.32-.39,0-.63Z"/>
        </g>
        <g>
          <path class="cls-2" d="M5.05,533.04c-1.33-.83-5.05-5.63-5.05-9.46v-65.01c0-3.5,6.01-8.38,9.57-5.67,53.93,41.13,155.97,65.54,186.4,26.1,30.14-39.06-38.1-51.84-70.68-55.66-51.31-6-118.25-36.15-121.63-89.74-1.53-24.27,1.04-50.49,20.04-72.11,29.95-34.09,73.13-46.3,117.21-47.7,45.49-1.45,85.2,4.18,135.2,19.33,2.08.63,4.26,3.55,4.26,7.49,0,9.31-.12,52.96-.12,67.06,0,3.47-7.41,4.5-9.16,3.26-51.96-36.66-157.65-55.68-175.65-13.68-18.58,43.34,69.37,45.88,119.69,59.82,119.02,32.95,97.96,161.56-15.21,193.39-47,13.22-163.09,2.33-194.85-17.42Z"/>
          <path class="cls-2" d="M558.6,540.03c-1.09-.68-4.12-4.59-4.12-7.71v-53c0-2.85,4.9-6.83,7.8-4.62,43.96,33.53,127.14,53.43,151.95,21.28,24.57-31.84-31.06-42.26-57.62-45.37-41.83-4.89-96.4-29.47-99.15-73.15-1.25-19.79.85-41.16,16.33-58.78,24.42-27.79,59.61-37.74,95.55-38.89,37.09-1.18,69.45,3.41,110.21,15.76,1.69.51,3.47,2.9,3.47,6.1,0,7.59-.1,43.17-.1,54.67,0,2.83-6.04,3.66-7.47,2.66-42.36-29.88-128.51-45.39-143.19-11.15-15.15,35.33,56.55,37.4,97.57,48.76,97.02,26.86,79.86,131.7-12.4,157.65-38.31,10.78-132.95,1.9-158.84-14.2Z"/>
          <path class="cls-2" d="M539.98,551.77c.12.16.14.66-.61.66-1.29,0-4.71,0-7.74,0-16.23,0-50.16-.06-54.14-.06-5.37,0-10.99-3-14.26-6.93-7.49-9.14-23.44-28.03-30.94-36.87-9.9-9.76-22.62-33.83-38.39-33.74-5.55.31-17.26-2.22-17.74,6.44-1.4,1.2-.46,59.28-.87,62.42-.18,4.65-3.35,8.88-8.55,8.88-10.42,0-35.56-.15-42.47-.15-3.64,0-8.46-3.63-9.28-7.52l.23-196.33c0-6.66,5.07-6.73,19.87-6.73h99.19c39.12,0,76.62,16.56,76.62,67.45,0,23.17-21.27,40.34-40.33,51.04-1.83,1.04-2.63,3.65-.64,6.07,10.67,12.99,69.78,84.98,70.06,85.35ZM448.81,409.58c0-21.86-15.09-28.55-30.09-28.55,0,0-39.16.06-39.16.06-4.92,0-4.92.08-4.92,8.16s0,33.52,0,37.61q0,11.22,4.92,11.22h39.43c9.27,0,29.82-11.88,29.82-28.5Z"/>
        </g>
      </g>
      <g>
        <path class="cls-2" d="M1067.88,440.55c.58,0,1.02.14,1.02,1.16.29,4.5,2.32,10.73,5.8,16.39,4.21,6.67,11.31,9.86,18.27,9.86s18.13-4.64,18.13-16.1c0-12.04-2.32-15.52-21.18-22.63-4.35-1.6-13.63-6.24-21.03-12.62-5.08-4.5-7.25-12.18-7.25-20.6,0-8.85,2.18-14.79,10.88-21.32,6.53-4.93,12.04-6.96,20.89-6.96,10.59,0,16.24,1.74,19.29,2.9,1.45.58,2.47.29,3.34-.72l1.89-1.89c.58-.58,1.31-.87,2.18-.87,1.02,0,1.31,1.6,1.45,2.47l2.32,24.8c0,.58-.29.73-.73.87l-3.19,1.02c-.73.29-1.45,0-1.89-1.02-1.6-4.21-4.06-9.86-8.99-15.08-3.63-4.06-7.98-6.09-14.5-6.09-10.88,0-15.37,9.43-15.37,13.2,0,5.37.14,9.72,3.77,13.34,3.77,3.92,12.04,7.4,19.15,9.43,6.96,2.03,12.62,5.66,18.56,11.02,5.66,5.08,7.98,11.46,7.98,21.61,0,17.69-12.62,32.05-31.76,32.05-13.05,0-19.87-2.18-25.96-6.24-1.74-1.16-2.61-1.6-3.34-1.6-.87,0-1.45,1.02-2.32,2.47-.87,1.6-1.6,1.74-2.61,1.74-1.6,0-2.18-.73-2.03-2.32l2.32-27.56c.14-1.02.58-1.02,1.16-1.02l3.77.29Z"/>
        <path class="cls-2" d="M1148.66,382.83c0-5.08-1.02-7.4-4.06-7.4h-6.82c-.87,0-1.02-.29-1.02-1.31v-3.48c0-.87.15-1.16,1.31-1.16,1.45,0,8.56.44,23.79.44,12.76,0,19.73-.44,21.32-.44,1.16,0,1.31.29,1.31,1.16v3.77c0,.73-.15,1.02-1.16,1.02h-4.93c-4.93,0-7.4,2.76-7.69,5.66-.14,1.6-.29,11.46-.29,18.86v9.57c0,7.69.58,26.11.73,30.75.14,6.67,1.45,13.2,4.64,17.26,4.79,5.8,11.6,8.12,18.13,8.12,5.37,0,13.2-2.76,17.11-6.38,5.8-5.22,9.14-13.2,9.14-23.64v-22.34c0-12.18-1.45-28.14-2.03-31.47-.58-3.77-2.9-6.38-5.37-6.38h-4.64c-.87,0-1.02-.44-1.02-1.16v-3.77c0-.73.15-1.02,1.02-1.02,1.45,0,8.12.44,17.98.44,7.83,0,12.47-.44,13.78-.44s1.45.58,1.45,1.31v3.19c0,.87-.15,1.45-.87,1.45h-4.5c-5.51,0-5.95,4.06-6.24,5.51-.29,2.03-.29,22.05-.29,24.08s-.29,27.41-.73,33.07c-.87,11.89-4.79,21.03-12.33,27.7-6.38,5.66-16.24,8.99-25.67,8.99-6.82,0-16.1-1.02-22.19-3.63-6.96-3.05-13.34-9.86-16.82-19.14-2.47-6.24-3.05-15.95-3.05-34.95v-34.23Z"/>
        <path class="cls-2" d="M1259.77,406.61c0-10.73,0-20.02-.15-23.93-.14-4.79-2.03-7.25-4.06-7.25h-5.8c-.73,0-.87-.44-.87-1.02v-3.92c0-.73.15-1.02.87-1.02,1.31,0,5.8.44,21.61.44,8.12,0,20.89-.44,26.83-.44,11.31,0,19.73,4.06,25.67,9.57,5.22,4.79,8.27,10.44,8.27,15.81,0,18.42-13.78,26.69-26.54,27.85v1.02c4.5,1.45,6.82,4.21,9.57,7.69,1.89,2.32,9.86,15.23,11.02,16.97.87,1.31,8.7,12.33,11.6,15.66,1.74,1.89,7.25,3.05,10.59,3.05,1.02,0,1.16.58,1.16,1.16v3.48c0,.87-.15,1.31-1.16,1.31-1.16,0-4.93-.44-16.1-.44-4.21,0-9.57.29-13.78.44-4.35-3.34-13.34-20.16-15.81-25.09-4.93-9.86-10.88-20.6-17.84-20.6h-4.93v7.4c0,8.56.44,24.8.73,26.69.29,3.05,1.45,5.66,3.63,5.66h5.95c1.02,0,1.16.44,1.16,1.16v3.48c0,1.02-.14,1.31-2.32,1.31-.14,0-3.77-.44-19-.44s-18.71.44-20.31.44c-1.16,0-1.16-.44-1.16-1.45v-3.34c0-.73,0-1.16.72-1.16h4.35c3.19,0,5.8-1.02,5.8-4.64.29-14.36.29-27.99.29-41.77v-14.07ZM1280.07,422.28c2.76.14,4.5.14,5.8.14,19.14,0,23.64-18.27,23.64-25.09s-2.32-13.05-5.51-16.24c-5.22-4.64-11.75-6.38-16.1-6.38-2.47,0-4.35.29-5.51,1.31-.87.58-1.31,2.18-1.6,3.92l-.73,42.35Z"/>
        <path class="cls-2" d="M1453.25,458.54c0,2.03.58,3.48.58,4.64s-.87,1.74-2.32,2.32c-11.75,5.95-24.08,9.28-42.5,9.28-15.08,0-32.05-4.79-42.06-16.53-8.85-10.01-13.34-22.34-13.34-39.89,0-13.2,6.24-27.27,16.82-36.4,10.59-9.28,23.64-14.21,41.05-14.21,14.65,0,25.53,4.06,30.31,7.11,1.74,1.02,2.76.73,3.63-.44l1.45-2.32c.73-1.02,1.02-1.45,1.89-1.45,1.6,0,2.03,1.02,2.03,2.61l2.18,29.88c.14,1.74,0,2.47-.58,2.61l-4.06.87c-.87.15-1.31-.14-1.74-1.45-2.32-7.11-6.96-16.39-13.2-22.05-5.66-5.37-13.05-8.99-22.92-8.99-7.83,0-15.08,2.47-21.9,10.88-6.67,7.98-11.6,20.02-11.6,33.07,0,17.11,4.79,32.05,12.62,39.89,6.82,6.82,12.33,9.86,22.19,9.86,7.54,0,11.6-.58,16.39-2.9,3.05-1.45,3.34-6.09,3.34-13.63v-10.44c0-5.22-1.45-6.67-5.08-6.67h-6.09c-.87,0-1.02-.58-1.02-1.31v-3.63c0-.58.14-1.02,1.02-1.02,1.31,0,8.41.44,21.47.44s18.71-.44,19.87-.44,1.31.44,1.31,1.16v3.63c0,.87-.14,1.16-1.02,1.16h-4.21c-2.61,0-4.5,1.02-4.5,5.22v19.15Z"/>
        <path class="cls-2" d="M1487.34,411.84c0-3.48-.44-29.59-.58-31.47-.29-3.48-1.74-4.93-4.79-4.93h-6.96c-.73,0-1.16-.29-1.16-.87v-4.21c0-.58.44-.87,1.02-.87,1.74,0,9.14.44,23.35.44s19.44-.44,21.47-.44c.73,0,1.02.44,1.02,1.31v3.63c0,.73-.44,1.02-1.16,1.02h-4.21c-3.63,0-5.8,1.16-5.8,3.77,0,1.45-.44,33.5-.44,35.24v11.17c0,1.45.44,34.95.44,36.26,0,4.5,2.18,5.22,4.93,5.22h5.95c.72,0,1.16.29,1.16,1.02v4.06c0,.58-.44.87-1.31.87-1.74,0-7.54-.44-21.32-.44-15.23,0-21.47.44-23.06.44-.73,0-1.16-.29-1.16-1.16v-3.92c0-.58.44-.87,1.16-.87h4.21c2.9,0,5.95-.44,6.53-3.92.29-2.18.73-33.5.73-41.19v-10.15Z"/>
        <path class="cls-2" d="M1551.44,461.44c-10.73-9.57-15.81-26.25-15.81-38.73,0-14.94,4.79-28.43,14.94-39.31,8.27-8.85,20.31-15.66,38.29-15.66,13.2,0,24.08,3.34,29.15,6.09,2.03,1.02,2.76.87,3.05-.15l1.16-3.63c.29-.87.58-.87,2.76-.87s2.47.29,2.47,2.32c0,2.76,2.61,27.41,3.34,31.76.15,1.02,0,1.74-.72,1.89l-3.19.87c-.72.29-1.31-.29-1.74-1.6-1.6-5.8-5.51-13.2-11.6-19.44-6.24-6.09-13.92-10.88-24.95-10.88-21.18,0-30.17,19.29-30.02,40.76,0,9.14,2.61,26.98,12.91,37.86,9.43,9.72,17.69,10.88,22.63,10.88,16.53,0,28.86-7.54,34.23-15.52.73-1.16,1.45-1.74,2.18-1.16l2.47,2.18c.44.29.58.87,0,1.74-8.41,12.18-22.48,23.93-42.93,23.93-19.29,0-29.44-5.22-38.58-13.34Z"/>
        <path class="cls-2" d="M1664.14,432.87c-1.16,3.05-8.27,22.92-8.27,27.56,0,3.19,1.31,6.67,5.66,6.67h5.08c1.45,0,1.6.58,1.6,1.16v3.19c0,1.16-.14,1.6-1.31,1.6-1.89,0-7.83-.44-19.72-.44-10.59,0-13.78.44-15.81.44-.87,0-1.02-.87-1.02-1.89v-2.76c0-.87.15-1.31,1.02-1.31h3.77c3.48,0,6.96-2.03,9.86-6.38,2.03-3.05,12.33-28.28,17.11-41.05,1.16-2.9,12.91-34.08,14.21-38,.44-1.45,1.16-3.34.15-4.93-.44-.58-1.02-1.31-1.02-1.89,0-.44.29-1.02,1.45-1.31,4.64-1.02,14.07-4.79,16.24-7.25.72-.73,1.16-1.31,1.89-1.31.87,0,1.16.87,1.6,2.47,2.76,9.14,14.07,41.63,16.82,50.91,3.34,11.31,12.76,38.29,14.79,42.21,2.47,4.79,6.24,6.53,8.41,6.53h4.93c.87,0,1.02.58,1.02,1.31v2.76c0,.87-.15,1.89-1.31,1.89-2.76,0-5.8-.44-24.37-.44-12.04,0-17.11.44-20.02.44-1.45,0-1.6-.87-1.6-1.89v-2.76c0-.73.15-1.31.87-1.31h4.06c3.92,0,5.22-1.45,4.35-5.22-1.31-5.22-6.96-23.79-8.7-29.01h-31.76ZM1694.6,427.07l-10.88-38.44c-.58-2.18-.87-3.19-1.6-3.19-.87,0-1.31.58-1.74,1.89-.72,1.89-13.2,36.11-14.36,39.74h28.57Z"/>
        <path class="cls-2" d="M1780.32,427.21c0,2.47,0,33.79.44,39.6h8.27c6.82,0,13.34,0,21.18-.73,7.83-.73,17.69-18.13,19.87-23.5.44-.87.87-1.31,1.74-.87l2.9,1.16c.44.29.44.44.29,1.31-.44,1.02-6.24,24.95-7.11,28.86-3.77-.29-45.54-.44-58.89-.44-14.36,0-19.58.44-21.47.44-1.02,0-1.16-.29-1.16-1.31v-3.63c0-.72.15-1.02,1.02-1.02h4.5c5.37,0,6.24-2.03,6.24-3.63,0-2.76.44-38.87.44-47.72v-8.12c0-9.28-.29-24.66-.44-26.98-.29-3.77-1.02-5.22-4.35-5.22h-5.37c-.87,0-1.02-.73-1.02-1.45v-3.48c0-.73.15-1.02,1.02-1.02,1.6,0,6.82.44,20.02.44,16.97,0,23.06-.44,24.37-.44,1.16,0,1.31.44,1.31,1.45v3.34c0,.73-.29,1.16-1.45,1.16h-6.82c-4.5,0-5.08,1.45-5.08,5.37,0,1.89-.44,23.79-.44,33.94v12.47Z"/>
        <path class="cls-2" d="M1884.17,406.61c0-10.73,0-20.02-.14-23.93-.15-4.79-2.03-7.25-4.06-7.25h-5.8c-.73,0-.87-.44-.87-1.02v-3.92c0-.73.14-1.02.87-1.02,1.31,0,5.8.44,21.61.44,8.12,0,20.89-.44,26.83-.44,11.31,0,19.73,4.06,25.67,9.57,5.22,4.79,8.27,10.44,8.27,15.81,0,18.42-13.78,26.69-26.54,27.85v1.02c4.5,1.45,6.82,4.21,9.57,7.69,1.89,2.32,9.86,15.23,11.02,16.97.87,1.31,8.7,12.33,11.6,15.66,1.74,1.89,7.25,3.05,10.59,3.05,1.02,0,1.16.58,1.16,1.16v3.48c0,.87-.15,1.31-1.16,1.31-1.16,0-4.93-.44-16.1-.44-4.21,0-9.57.29-13.78.44-4.35-3.34-13.34-20.16-15.81-25.09-4.93-9.86-10.88-20.6-17.84-20.6h-4.93v7.4c0,8.56.44,24.8.72,26.69.29,3.05,1.45,5.66,3.63,5.66h5.95c1.01,0,1.16.44,1.16,1.16v3.48c0,1.02-.15,1.31-2.32,1.31-.15,0-3.77-.44-19-.44s-18.71.44-20.31.44c-1.16,0-1.16-.44-1.16-1.45v-3.34c0-.73,0-1.16.73-1.16h4.35c3.19,0,5.8-1.02,5.8-4.64.29-14.36.29-27.99.29-41.77v-14.07ZM1904.48,422.28c2.76.14,4.5.14,5.8.14,19.15,0,23.64-18.27,23.64-25.09s-2.32-13.05-5.51-16.24c-5.22-4.64-11.75-6.38-16.1-6.38-2.47,0-4.35.29-5.51,1.31-.87.58-1.31,2.18-1.6,3.92l-.72,42.35Z"/>
        <path class="cls-2" d="M2011.08,417.06c6.67,0,13.05-.44,14.79-.87,2.47-.58,4.5-1.89,6.67-4.5,1.6-2.18,3.34-6.24,3.34-8.99,0-1.02.44-1.31,1.16-1.31l3.92.44c.72.14,1.31.29,1.16,1.16-.44,2.47-.44,10.01-.44,15.08,0,6.53.58,13.49.87,16.53.14.87-.44,1.02-1.16,1.16l-3.48.73c-.58.14-.87-.15-1.16-1.16-.58-2.32-2.03-5.66-2.9-7.4-1.6-2.76-5.08-4.64-7.98-5.08-3.92-.58-8.41-.87-14.79-.87v8.7c0,7.83.73,21.9.73,24.51,0,7.54,1.6,10.15,3.48,11.02,2.18.87,4.93,1.31,12.18,1.31,2.47,0,8.56-.14,11.6-.44,2.9-.29,7.25-1.74,11.02-4.79,3.77-3.05,11.89-12.04,14.79-15.52.58-.58,1.02-.73,1.45-.44l2.47,1.45c.58.29.72.73.58,1.16l-6.53,21.9c-.44,1.31-1.45,2.18-3.19,2.18-.73,0-3.92-.14-13.2-.29-9.43,0-24.8-.14-49.89-.14-5.37,0-9.43.14-12.33.14-3.05.15-4.93.29-6.24.29-1.02,0-1.31-.44-1.31-1.6v-3.05c0-.87.44-1.31,1.45-1.31h4.35c6.67,0,7.25-1.02,7.25-6.09v-48.59c0-12.04-.29-29.88-.44-31.33-.58-4.64-2.03-5.66-5.95-5.66h-5.66c-.58,0-.72-.44-.72-1.45v-3.48c0-.44.15-1.02,1.02-1.02,3.19,0,8.27.44,21.47.44l50.91-.15c2.32,0,5.08-.29,5.8-.29s1.02.29,1.16.73c.58,2.03,5.37,21.9,5.95,23.35.29.72.29,1.02-.44,1.45l-2.32,1.16c-.58.29-1.31.15-1.74-.58-.73-1.16-13.78-14.21-17.12-16.24-3.05-1.89-7.11-3.77-11.02-3.92l-19.15-.58-.44,42.21Z"/>
        <path class="cls-2" d="M2095.35,461.44c-10.73-9.57-15.81-26.25-15.81-38.73,0-14.94,4.79-28.43,14.94-39.31,8.27-8.85,20.31-15.66,38.29-15.66,13.2,0,24.08,3.34,29.15,6.09,2.03,1.02,2.76.87,3.05-.15l1.16-3.63c.29-.87.58-.87,2.76-.87s2.47.29,2.47,2.32c0,2.76,2.61,27.41,3.34,31.76.15,1.02,0,1.74-.72,1.89l-3.19.87c-.73.29-1.31-.29-1.74-1.6-1.6-5.8-5.51-13.2-11.6-19.44-6.24-6.09-13.92-10.88-24.95-10.88-21.18,0-30.17,19.29-30.02,40.76,0,9.14,2.61,26.98,12.91,37.86,9.43,9.72,17.69,10.88,22.63,10.88,16.53,0,28.86-7.54,34.23-15.52.73-1.16,1.45-1.74,2.18-1.16l2.47,2.18c.44.29.58.87,0,1.74-8.41,12.18-22.48,23.93-42.93,23.93-19.29,0-29.44-5.22-38.58-13.34Z"/>
        <path class="cls-2" d="M2207.04,465.36c-10.3-6.24-21.32-21.9-21.32-43.08,0-8.85,2.32-22.63,13.49-36.11,12.76-15.52,29.15-18.42,42.21-18.42,12.04,0,23.21,1.89,35.39,11.46,11.02,8.7,19.87,23.35,19.87,43.37,0,10.59-3.34,21.61-10.88,31.76-9.43,11.75-21.76,20.45-44.67,20.45-10.01,0-22.63-2.32-34.08-9.43ZM2273.9,423.73c0-31.76-20.89-49.17-33.07-49.17-2.9,0-10.15-.73-19,7.83-8.56,8.12-12.91,23.35-12.91,35.24,0,37.13,21.32,50.33,33.36,50.33,26.83,0,31.62-32.34,31.62-44.24Z"/>
        <path class="cls-2" d="M2368.61,370.5c0-.73.15-1.02.87-1.02,1.31,0,7.98.44,17.69.44,13.49,0,17.11-.44,18.42-.44.87,0,1.02.29,1.02,1.31v3.63c0,.58-.14,1.02-1.02,1.02h-3.34c-2.47,0-6.96,1.02-10.73,7.54-5.8,9.86-12.04,26.98-17.55,39.16-3.63,7.83-20.02,46.7-22.48,50.91-1.02,1.74-1.74,2.47-3.34,2.47-1.89,0-2.47-1.74-3.34-3.63-5.37-11.46-18.56-46.56-22.63-56.56-4.06-10.01-11.31-31.04-13.05-35.1-1.45-3.34-3.19-4.79-6.24-4.79h-3.77c-.58,0-.73-.73-.73-1.45v-3.48c0-.73.15-1.02,1.02-1.02,1.45,0,6.24.44,23.64.44,15.08,0,21.61-.44,22.92-.44s1.45.44,1.45,1.31v3.34c0,.73-.15,1.31-1.16,1.31h-6.24c-3.48,0-6.24,1.6-6.24,3.48,0,1.16,0,2.9.44,4.93,1.16,5.22,6.67,22.48,9.72,30.89l11.02,32.34h.58c4.21-9.72,11.31-27.85,13.2-33.07,2.76-7.11,7.25-19.29,9.57-25.82,1.45-3.77,1.45-6.24,1.45-7.98s-1.74-4.79-5.95-4.79h-4.5c-.58,0-.73-.44-.73-1.31v-3.63Z"/>
        <path class="cls-2" d="M2439.1,417.06c6.67,0,13.05-.44,14.79-.87,2.47-.58,4.5-1.89,6.67-4.5,1.6-2.18,3.34-6.24,3.34-8.99,0-1.02.44-1.31,1.16-1.31l3.92.44c.72.14,1.31.29,1.16,1.16-.44,2.47-.44,10.01-.44,15.08,0,6.53.58,13.49.87,16.53.14.87-.44,1.02-1.16,1.16l-3.48.73c-.58.14-.87-.15-1.16-1.16-.58-2.32-2.03-5.66-2.9-7.4-1.6-2.76-5.08-4.64-7.98-5.08-3.92-.58-8.41-.87-14.79-.87v8.7c0,7.83.73,21.9.73,24.51,0,7.54,1.6,10.15,3.48,11.02,2.18.87,4.93,1.31,12.18,1.31,2.47,0,8.56-.14,11.6-.44,2.9-.29,7.25-1.74,11.02-4.79,3.77-3.05,11.89-12.04,14.79-15.52.58-.58,1.02-.73,1.45-.44l2.47,1.45c.58.29.72.73.58,1.16l-6.53,21.9c-.44,1.31-1.45,2.18-3.19,2.18-.73,0-3.92-.14-13.2-.29-9.43,0-24.8-.14-49.89-.14-5.37,0-9.43.14-12.33.14-3.05.15-4.93.29-6.24.29-1.02,0-1.31-.44-1.31-1.6v-3.05c0-.87.44-1.31,1.45-1.31h4.35c6.67,0,7.25-1.02,7.25-6.09v-48.59c0-12.04-.29-29.88-.44-31.33-.58-4.64-2.03-5.66-5.95-5.66h-5.66c-.58,0-.72-.44-.72-1.45v-3.48c0-.44.15-1.02,1.02-1.02,3.19,0,8.27.44,21.47.44l50.91-.15c2.32,0,5.08-.29,5.8-.29s1.02.29,1.16.73c.58,2.03,5.37,21.9,5.95,23.35.29.72.29,1.02-.44,1.45l-2.32,1.16c-.58.29-1.31.15-1.74-.58-.73-1.16-13.78-14.21-17.12-16.24-3.05-1.89-7.11-3.77-11.02-3.92l-19.15-.58-.44,42.21Z"/>
        <path class="cls-2" d="M2515.97,406.61c0-10.73,0-20.02-.14-23.93-.15-4.79-2.03-7.25-4.06-7.25h-5.8c-.73,0-.87-.44-.87-1.02v-3.92c0-.73.14-1.02.87-1.02,1.31,0,5.8.44,21.61.44,8.12,0,20.89-.44,26.83-.44,11.31,0,19.73,4.06,25.67,9.57,5.22,4.79,8.27,10.44,8.27,15.81,0,18.42-13.78,26.69-26.54,27.85v1.02c4.5,1.45,6.82,4.21,9.57,7.69,1.89,2.32,9.86,15.23,11.02,16.97.87,1.31,8.7,12.33,11.6,15.66,1.74,1.89,7.25,3.05,10.59,3.05,1.02,0,1.16.58,1.16,1.16v3.48c0,.87-.15,1.31-1.16,1.31-1.16,0-4.93-.44-16.1-.44-4.21,0-9.57.29-13.78.44-4.35-3.34-13.34-20.16-15.81-25.09-4.93-9.86-10.88-20.6-17.84-20.6h-4.93v7.4c0,8.56.44,24.8.72,26.69.29,3.05,1.45,5.66,3.63,5.66h5.95c1.01,0,1.16.44,1.16,1.16v3.48c0,1.02-.15,1.31-2.32,1.31-.15,0-3.77-.44-19-.44s-18.71.44-20.31.44c-1.16,0-1.16-.44-1.16-1.45v-3.34c0-.73,0-1.16.73-1.16h4.35c3.19,0,5.8-1.02,5.8-4.64.29-14.36.29-27.99.29-41.77v-14.07ZM2536.28,422.28c2.76.14,4.5.14,5.8.14,19.15,0,23.64-18.27,23.64-25.09s-2.32-13.05-5.51-16.24c-5.22-4.64-11.75-6.38-16.1-6.38-2.47,0-4.35.29-5.51,1.31-.87.58-1.31,2.18-1.6,3.92l-.73,42.35Z"/>
        <path class="cls-2" d="M2655.07,445.63c0,5.66.44,15.08.58,16.39.44,4.64,2.61,5.08,4.93,5.08h4.21c1.02,0,1.02.44,1.02,1.02v3.63c0,.87,0,1.31-1.02,1.31-1.74,0-7.4-.44-21.03-.44-15.08,0-19.58.44-21.18.44-.58,0-.87-.44-.87-1.45v-3.48c0-.58.15-1.02,1.02-1.02h5.08c3.77,0,4.93-1.45,5.08-3.34.15-2.03.44-13.49.44-26.98v-6.24c-2.32-4.5-25.53-46.85-29.15-51.78-1.74-2.18-5.22-3.34-7.54-3.34h-2.18c-.87,0-1.02-.44-1.02-1.02v-4.06c0-.58.15-.87,1.02-.87,1.31,0,8.12.44,21.03.44,14.94,0,20.16-.44,21.61-.44.87,0,1.02.29,1.02,1.02v3.63c0,.73-.15,1.31-1.02,1.31h-3.34c-2.03,0-3.48,1.45-3.48,3.77,0,2.61,17.26,35.82,21.18,44.24,4.35-7.98,21.76-38.58,21.76-43.08,0-2.47-2.47-4.93-5.51-4.93h-3.92c-.87,0-1.02-.44-1.02-1.31v-3.77c0-.58.15-.87,1.02-.87,1.45,0,7.4.44,18.13.44,10.01,0,13.2-.44,14.5-.44,1.02,0,1.16.29,1.16,1.16v3.48c0,.87-.15,1.31-1.16,1.31h-2.61c-1.74,0-6.09.87-8.27,3.48-1.89,2.32-24.51,39.45-30.46,50.62v16.1Z"/>
        <path class="cls-2" d="M2734.12,440.55c.58,0,1.02.14,1.02,1.16.29,4.5,2.32,10.73,5.8,16.39,4.21,6.67,11.31,9.86,18.28,9.86s18.13-4.64,18.13-16.1c0-12.04-2.32-15.52-21.18-22.63-4.35-1.6-13.63-6.24-21.03-12.62-5.08-4.5-7.25-12.18-7.25-20.6,0-8.85,2.18-14.79,10.88-21.32,6.53-4.93,12.04-6.96,20.89-6.96,10.59,0,16.24,1.74,19.29,2.9,1.45.58,2.47.29,3.34-.72l1.89-1.89c.58-.58,1.31-.87,2.18-.87,1.01,0,1.31,1.6,1.45,2.47l2.32,24.8c0,.58-.29.73-.73.87l-3.19,1.02c-.72.29-1.45,0-1.89-1.02-1.6-4.21-4.06-9.86-8.99-15.08-3.63-4.06-7.98-6.09-14.5-6.09-10.88,0-15.37,9.43-15.37,13.2,0,5.37.14,9.72,3.77,13.34,3.77,3.92,12.04,7.4,19.14,9.43,6.96,2.03,12.62,5.66,18.56,11.02,5.66,5.08,7.98,11.46,7.98,21.61,0,17.69-12.62,32.05-31.76,32.05-13.05,0-19.87-2.18-25.96-6.24-1.74-1.16-2.61-1.6-3.34-1.6-.87,0-1.45,1.02-2.32,2.47-.87,1.6-1.6,1.74-2.61,1.74-1.6,0-2.18-.73-2.03-2.32l2.32-27.56c.15-1.02.58-1.02,1.16-1.02l3.77.29Z"/>
        <path class="cls-2" d="M2856.24,445.63c0,5.66.44,15.08.58,16.39.44,4.64,2.61,5.08,4.93,5.08h4.21c1.02,0,1.02.44,1.02,1.02v3.63c0,.87,0,1.31-1.02,1.31-1.74,0-7.4-.44-21.03-.44-15.08,0-19.58.44-21.18.44-.58,0-.87-.44-.87-1.45v-3.48c0-.58.15-1.02,1.02-1.02h5.08c3.77,0,4.93-1.45,5.08-3.34.15-2.03.44-13.49.44-26.98v-6.24c-2.32-4.5-25.53-46.85-29.15-51.78-1.74-2.18-5.22-3.34-7.54-3.34h-2.18c-.87,0-1.02-.44-1.02-1.02v-4.06c0-.58.15-.87,1.02-.87,1.31,0,8.12.44,21.03.44,14.94,0,20.16-.44,21.61-.44.87,0,1.02.29,1.02,1.02v3.63c0,.73-.15,1.31-1.02,1.31h-3.34c-2.03,0-3.48,1.45-3.48,3.77,0,2.61,17.26,35.82,21.18,44.24,4.35-7.98,21.76-38.58,21.76-43.08,0-2.47-2.47-4.93-5.51-4.93h-3.92c-.87,0-1.02-.44-1.02-1.31v-3.77c0-.58.15-.87,1.02-.87,1.45,0,7.4.44,18.13.44,10.01,0,13.2-.44,14.5-.44,1.02,0,1.16.29,1.16,1.16v3.48c0,.87-.15,1.31-1.16,1.31h-2.61c-1.74,0-6.09.87-8.27,3.48-1.89,2.32-24.51,39.45-30.46,50.62v16.1Z"/>
        <path class="cls-2" d="M2906.28,440.55c.58,0,1.02.14,1.02,1.16.29,4.5,2.32,10.73,5.8,16.39,4.21,6.67,11.31,9.86,18.28,9.86s18.13-4.64,18.13-16.1c0-12.04-2.32-15.52-21.18-22.63-4.35-1.6-13.63-6.24-21.03-12.62-5.08-4.5-7.25-12.18-7.25-20.6,0-8.85,2.18-14.79,10.88-21.32,6.53-4.93,12.04-6.96,20.89-6.96,10.59,0,16.24,1.74,19.29,2.9,1.45.58,2.47.29,3.34-.72l1.89-1.89c.58-.58,1.31-.87,2.18-.87,1.01,0,1.31,1.6,1.45,2.47l2.32,24.8c0,.58-.29.73-.73.87l-3.19,1.02c-.72.29-1.45,0-1.89-1.02-1.6-4.21-4.06-9.86-8.99-15.08-3.63-4.06-7.98-6.09-14.5-6.09-10.88,0-15.37,9.43-15.37,13.2,0,5.37.14,9.72,3.77,13.34,3.77,3.92,12.04,7.4,19.14,9.43,6.96,2.03,12.62,5.66,18.56,11.02,5.66,5.08,7.98,11.46,7.98,21.61,0,17.69-12.62,32.05-31.76,32.05-13.05,0-19.87-2.18-25.96-6.24-1.74-1.16-2.61-1.6-3.34-1.6-.87,0-1.45,1.02-2.32,2.47-.87,1.6-1.6,1.74-2.61,1.74-1.6,0-2.18-.73-2.03-2.32l2.32-27.56c.15-1.02.58-1.02,1.16-1.02l3.77.29Z"/>
        <path class="cls-2" d="M3016.07,376.59h-5.08c-4.64,0-13.34.14-19.44,2.32-3.19,2.32-9.57,11.17-13.2,16.39-.44.73-.87,1.16-1.45,1.02l-3.19-1.16c-.58-.15-.72-.87-.58-1.31,1.6-6.09,6.38-25.24,6.96-28.14.44-1.89,1.16-2.47,2.18-2.47s1.45.58,2.76,2.18c1.6,2.03,4.35,3.34,9.57,3.63,7.69.44,13.78.87,28.86.87h8.41c15.81,0,22.05-.58,28.14-.87,3.19-.14,8.85-1.89,10.59-3.63,1.45-1.45,2.32-2.18,3.34-2.18s1.45.58,1.74,2.32l4.35,28.86c.15.58-.15,1.16-.58,1.31l-3.05,1.16c-.58.15-.87-.29-1.45-1.31-3.19-5.22-8.85-12.76-12.47-16.24-3.63-2.18-16.53-2.76-19.87-2.76h-4.79v39.89c0,2.03,0,42.64.15,44.82.29,3.63,1.45,5.8,4.93,5.8h6.53c1.31,0,1.45.44,1.45,1.45v3.34c0,.73-.15,1.16-1.45,1.16-1.45,0-6.09-.44-22.19-.44s-21.47.44-23.5.44c-1.16,0-1.31-.58-1.31-1.74v-2.76c0-1.02.15-1.45,1.02-1.45h7.4c2.9,0,4.64-1.74,4.93-4.35.29-3.05.29-47.57.29-50.33v-35.82Z"/>
        <path class="cls-2" d="M3122.53,417.06c6.67,0,13.05-.44,14.79-.87,2.47-.58,4.5-1.89,6.67-4.5,1.6-2.18,3.34-6.24,3.34-8.99,0-1.02.44-1.31,1.16-1.31l3.92.44c.72.14,1.31.29,1.16,1.16-.44,2.47-.44,10.01-.44,15.08,0,6.53.58,13.49.87,16.53.14.87-.44,1.02-1.16,1.16l-3.48.73c-.58.14-.87-.15-1.16-1.16-.58-2.32-2.03-5.66-2.9-7.4-1.6-2.76-5.08-4.64-7.98-5.08-3.92-.58-8.41-.87-14.79-.87v8.7c0,7.83.73,21.9.73,24.51,0,7.54,1.6,10.15,3.48,11.02,2.18.87,4.93,1.31,12.18,1.31,2.47,0,8.56-.14,11.6-.44,2.9-.29,7.25-1.74,11.02-4.79s11.89-12.04,14.79-15.52c.58-.58,1.02-.73,1.45-.44l2.47,1.45c.58.29.72.73.58,1.16l-6.53,21.9c-.44,1.31-1.45,2.18-3.19,2.18-.73,0-3.92-.14-13.2-.29-9.43,0-24.8-.14-49.89-.14-5.37,0-9.43.14-12.33.14-3.05.15-4.93.29-6.24.29-1.02,0-1.31-.44-1.31-1.6v-3.05c0-.87.44-1.31,1.45-1.31h4.35c6.67,0,7.25-1.02,7.25-6.09v-48.59c0-12.04-.29-29.88-.44-31.33-.58-4.64-2.03-5.66-5.95-5.66h-5.66c-.58,0-.72-.44-.72-1.45v-3.48c0-.44.15-1.02,1.02-1.02,3.19,0,8.27.44,21.47.44l50.91-.15c2.32,0,5.08-.29,5.8-.29s1.02.29,1.16.73c.58,2.03,5.37,21.9,5.95,23.35.29.72.29,1.02-.44,1.45l-2.32,1.16c-.58.29-1.31.15-1.74-.58-.73-1.16-13.78-14.21-17.12-16.24-3.05-1.89-7.11-3.77-11.02-3.92l-19.15-.58-.44,42.21Z"/>
        <path class="cls-2" d="M3206.08,453.61c.44,5.37,2.76,13.49,7.54,13.49h5.66c.87,0,1.02.44,1.02,1.02v3.92c0,.58-.14,1.02-1.31,1.02-1.6,0-5.51-.44-16.1-.44-12.33,0-17.4.44-18.71.44-1.16,0-1.31-.14-1.31-1.31v-3.77c0-.44.15-.87.87-.87h5.95c4.64,0,6.38-6.67,6.96-11.31,1.31-10.3,2.61-44.53,2.61-47.14l-.15-22.19c0-6.67-1.45-11.02-7.98-11.02h-4.79c-.87,0-1.01-.44-1.01-1.02v-4.06c0-.44.14-.87,1.01-.87,1.45,0,5.37.44,22.48.44,6.82,0,11.31-.44,13.05-.44,1.45,0,2.61.15,3.48,2.47,9.28,24.66,19.73,48.73,27.85,70.49,1.6-2.76,12.62-29.73,13.49-31.76.58-1.45,15.08-36.11,15.81-39.02.44-1.6,2.32-1.74,6.67-1.74,22.63,0,27.56-.44,29.15-.44.72,0,.87.44.87,1.31v3.34c0,.87-.15,1.31-1.16,1.31h-6.38c-3.34,0-3.77,2.61-3.77,5.66,0,2.18.15,37.86.29,40.9,0,2.9.44,34.66.44,37.27,0,5.51,1.31,7.83,3.34,7.83h6.96c.87,0,1.02.44,1.02,1.02v3.63c0,.87-.15,1.31-1.31,1.31-1.74,0-4.35-.44-21.47-.44-14.79,0-20.45.44-22.34.44-1.02,0-1.16-.44-1.16-1.31v-3.63c0-.72.15-1.02,1.16-1.02h8.12c2.47,0,3.77-.87,4.06-4.93.14-1.74.58-28.14.58-38.29v-44.24h-.87c-1.45,2.47-17.69,41.92-20.31,47.86-3.05,6.67-15.95,38.87-16.68,40.18-.73,1.16-1.74,3.34-3.48,3.34-1.01,0-1.89-1.02-2.61-2.61-.44-1.02-19.58-45.98-20.6-48.59-2.61-6.67-15.95-39.16-17.11-40.9-.58,2.03-.87,38.73-.87,40.47s.15,21.47,1.02,34.23Z"/>
        <path class="cls-2" d="M3340.24,440.55c.58,0,1.02.14,1.02,1.16.29,4.5,2.32,10.73,5.8,16.39,4.21,6.67,11.31,9.86,18.28,9.86s18.13-4.64,18.13-16.1c0-12.04-2.32-15.52-21.18-22.63-4.35-1.6-13.63-6.24-21.03-12.62-5.08-4.5-7.25-12.18-7.25-20.6,0-8.85,2.18-14.79,10.88-21.32,6.53-4.93,12.04-6.96,20.89-6.96,10.59,0,16.24,1.74,19.29,2.9,1.45.58,2.47.29,3.34-.72l1.89-1.89c.58-.58,1.31-.87,2.18-.87,1.01,0,1.31,1.6,1.45,2.47l2.32,24.8c0,.58-.29.73-.73.87l-3.19,1.02c-.72.29-1.45,0-1.89-1.02-1.6-4.21-4.06-9.86-8.99-15.08-3.63-4.06-7.98-6.09-14.5-6.09-10.88,0-15.37,9.43-15.37,13.2,0,5.37.14,9.72,3.77,13.34,3.77,3.92,12.04,7.4,19.14,9.43,6.96,2.03,12.62,5.66,18.56,11.02,5.66,5.08,7.98,11.46,7.98,21.61,0,17.69-12.62,32.05-31.76,32.05-13.05,0-19.87-2.18-25.96-6.24-1.74-1.16-2.61-1.6-3.34-1.6-.87,0-1.45,1.02-2.32,2.47-.87,1.6-1.6,1.74-2.61,1.74-1.6,0-2.18-.73-2.03-2.32l2.32-27.56c.15-1.02.58-1.02,1.16-1.02l3.77.29Z"/>
      </g>
      <line class="cls-1" x1="908.82" y1="286.43" x2="908.82" y2="552.33"/>
    </g>
  </g>
</svg>