<?xml version="1.0" encoding="UTF-8"?>
<svg id="Layer_2" data-name="Layer 2" xmlns="http://www.w3.org/2000/svg" xmlns:xlink="http://www.w3.org/1999/xlink" viewBox="0 0 1841.71 1451.42">
  <defs>
    <style>
      .cls-1 {
        fill: url(#linear-gradient-2);
      }

      .cls-2 {
        fill: #fff;
      }

      .cls-3 {
        fill: url(#linear-gradient);
      }

      .cls-4 {
        fill: #2c68fe;
      }
    </style>
    <linearGradient id="linear-gradient" x1="1050.5" y1="750.74" x2="1050.5" y2="0" gradientUnits="userSpaceOnUse">
      <stop offset="0" stop-color="#2c68fe"/>
      <stop offset=".13" stop-color="#2e82f2"/>
      <stop offset=".3" stop-color="#319fe6"/>
      <stop offset=".47" stop-color="#34b4dd"/>
      <stop offset=".64" stop-color="#35c0d7"/>
      <stop offset=".8" stop-color="#36c5d6"/>
    </linearGradient>
    <linearGradient id="linear-gradient-2" x1="1396.04" y1="516.1" x2="1397.14" y2="516.1" xlink:href="#linear-gradient"/>
  </defs>
  <g id="Logos">
    <g>
      <g>
        <g>
          <path class="cls-3" d="M1821.85,634.29c-54.42-18.64-307.65-125.05-450.57-46.13-36.92,20.39-61.91,44.58-82.88,66.08-40.44,39.17-93.28,67.45-147.54,83.1-132.91,36.26-290.66-1.22-379.25-110.61-68.54-94.5-142.68-169.58-264.19-199.6-41.47-10.24-68.04-12.43-89.53-10.06-38.81,4.28-83.44,21.39-111.34,7.13-115.75-59.15,76.51-341.61,61.26-260.75-65.28,178.78,41.61,174.05,171.04,109.73,72.55-31.33,162.91-33.13,228.41,12.92-16.87-23.42-48.14-35.71-72.64-50.66-36.91-17.77,85.74-52.38,47.92-123.75-18.91-62.52-125.24-83.71-93.71-94.14,121.48-.54,215.24,49.63,200.22,184.72-3.63,52.24-19.93,93.91,11.42,142.23,36.25,59.46,104.83,97.49,170.48,111.92,28,6.16,105.81,5.09,87.35,23.83-51.89,52.68-90.6,80.29-151.39,97.08,166.73-13.75,276.31-207.71,443.89-264.75,132.3-45.03,159.43,6.37,240.36,107.85,9.36,10.38,10.43,31,1.21,34.85-9.95,4.16-31.6-12.31-43.61-23.69-43.46-37.59-79.04-45.19-125.49-9.24-12.19,5.69-77.04,82.98-75.72,92.61,8.15-11.86,33.54-32.89,44.98-41.82,16.68-13.96,35.16-33.2,57.84-36.19,75.34-.62,148.99,48.95,212.05,85.59,39.51,23.25,83.51,51.33,119.2,80.06,14.52,11.69,15.11,41.08-9.77,31.7ZM1396.59,515.39c-.73.54-.73.89,0,1.43.73-.54.73-.89,0-1.43ZM619.62,53.93c-32.69-65.44-124.85-66.61-179.72-28.73-136.19,97.34,30.2,250.14,148.67,196.51,58.3-31.88,56.16-114.35,31.05-167.78Z"/>
          <path class="cls-1" d="M1396.59,515.39c.73.54.73.89,0,1.43-.73-.54-.73-.89,0-1.43Z"/>
        </g>
        <g>
          <path class="cls-4" d="M16.89,1207.06c-3.02-1.88-11.44-12.74-11.44-21.42v-147.21c0-7.93,13.62-18.98,21.67-12.84,122.12,93.14,353.18,148.42,422.09,59.11,68.26-88.46-86.28-117.4-160.05-126.03-116.2-13.59-267.78-81.87-275.43-203.21-3.46-54.97,2.35-114.34,45.37-163.29,67.83-77.19,165.59-104.84,265.43-108.02,103.02-3.28,192.94,9.46,306.15,43.77,4.7,1.42,9.65,8.05,9.65,16.96,0,21.08-.27,119.92-.27,151.86,0,7.87-16.78,10.18-20.75,7.38-117.67-83.01-356.99-126.09-397.76-30.98-42.07,98.13,157.1,103.9,271.04,135.45,269.52,74.62,221.83,365.84-34.45,437.92-106.43,29.93-369.31,5.28-441.24-39.45Z"/>
          <path class="cls-4" d="M1270.4,1222.89c-2.46-1.53-9.33-10.39-9.33-17.46v-120.01c0-6.46,11.1-15.47,17.67-10.47,99.55,75.93,287.91,120.99,344.08,48.18,55.64-72.11-70.33-95.7-130.47-102.74-94.72-11.08-218.29-66.74-224.52-165.65-2.82-44.81,1.92-93.21,36.98-133.11,55.3-62.92,134.99-85.47,216.37-88.06,83.98-2.67,157.28,7.71,249.57,35.68,3.83,1.16,7.86,6.56,7.86,13.82,0,17.19-.22,97.76-.22,123.8,0,6.41-13.68,8.3-16.92,6.01-95.92-67.66-291.01-102.78-324.25-25.25-34.3,80,128.06,84.7,220.95,110.42,219.71,60.83,180.83,298.23-28.08,356.99-86.76,24.4-301.05,4.3-359.69-32.16Z"/>
          <path class="cls-4" d="M1228.22,1249.46c.28.36.31,1.49-1.38,1.49-2.93,0-10.66,0-17.54,0-36.75,0-113.59-.12-122.59-.12-12.16,0-24.88-6.79-32.29-15.7-16.96-20.7-53.07-63.48-70.05-83.49-22.42-22.09-51.23-76.6-86.94-76.4-12.57.7-39.08-5.03-40.16,14.59-3.17,2.72-1.05,134.24-1.97,141.36-.42,10.54-7.58,20.12-19.37,20.12-23.59,0-80.53-.34-96.18-.34-8.25,0-19.16-8.22-21.02-17.02l.52-444.59c0-15.09,11.47-15.24,45-15.24h224.61c88.59,0,173.49,37.49,173.49,152.74,0,52.46-48.18,91.35-91.33,115.58-4.14,2.35-5.95,8.26-1.45,13.74,24.17,29.42,158.01,192.43,158.66,193.27ZM1021.78,927.48c0-49.51-34.17-64.65-68.13-64.65,0,0-88.67.14-88.67.14-11.15,0-11.14.18-11.14,18.47s0,75.9,0,85.17q0,25.4,11.15,25.4h89.28c20.99,0,67.53-26.9,67.53-64.53Z"/>
        </g>
      </g>
      <g>
        <rect class="cls-4" y="1311.99" width="1773.16" height="139.43"/>
        <g>
          <path class="cls-2" d="M82.18,1396.35c.4,0,.7.1.7.8.2,3.11,1.61,7.42,4.01,11.34,2.91,4.61,7.82,6.82,12.64,6.82s12.54-3.21,12.54-11.14c0-8.33-1.61-10.73-14.65-15.65-3.01-1.1-9.43-4.31-14.55-8.73-3.51-3.11-5.02-8.43-5.02-14.25,0-6.12,1.5-10.23,7.52-14.75,4.51-3.41,8.33-4.82,14.45-4.82,7.32,0,11.24,1.2,13.34,2.01,1,.4,1.71.2,2.31-.5l1.3-1.3c.4-.4.9-.6,1.5-.6.7,0,.9,1.1,1,1.71l1.6,17.16c0,.4-.2.5-.5.6l-2.21.7c-.5.2-1,0-1.3-.7-1.1-2.91-2.81-6.82-6.22-10.43-2.51-2.81-5.52-4.21-10.03-4.21-7.52,0-10.63,6.52-10.63,9.13,0,3.71.1,6.72,2.61,9.23,2.61,2.71,8.33,5.12,13.24,6.52,4.82,1.4,8.73,3.91,12.84,7.62,3.91,3.51,5.52,7.93,5.52,14.95,0,12.24-8.73,22.17-21.97,22.17-9.03,0-13.74-1.51-17.96-4.31-1.2-.8-1.81-1.1-2.31-1.1-.6,0-1,.7-1.61,1.71-.6,1.1-1.1,1.2-1.81,1.2-1.1,0-1.5-.5-1.4-1.61l1.61-19.06c.1-.7.4-.7.8-.7l2.61.2Z"/>
          <path class="cls-2" d="M138.06,1356.42c0-3.51-.7-5.12-2.81-5.12h-4.72c-.6,0-.7-.2-.7-.9v-2.41c0-.6.1-.8.9-.8,1,0,5.92.3,16.45.3,8.83,0,13.64-.3,14.75-.3.8,0,.9.2.9.8v2.61c0,.5-.1.7-.8.7h-3.41c-3.41,0-5.12,1.91-5.32,3.91-.1,1.1-.2,7.93-.2,13.04v6.62c0,5.32.4,18.06.5,21.27.1,4.62,1,9.13,3.21,11.94,3.31,4.01,8.03,5.62,12.54,5.62,3.71,0,9.13-1.91,11.84-4.41,4.01-3.61,6.32-9.13,6.32-16.35v-15.45c0-8.43-1-19.46-1.4-21.77-.4-2.61-2.01-4.41-3.71-4.41h-3.21c-.6,0-.7-.3-.7-.8v-2.61c0-.5.1-.7.7-.7,1,0,5.62.3,12.44.3,5.42,0,8.63-.3,9.53-.3s1,.4,1,.9v2.21c0,.6-.1,1-.6,1h-3.11c-3.81,0-4.11,2.81-4.31,3.81-.2,1.4-.2,15.25-.2,16.65s-.2,18.96-.5,22.87c-.6,8.23-3.31,14.55-8.53,19.16-4.41,3.91-11.24,6.22-17.76,6.22-4.72,0-11.14-.7-15.35-2.51-4.82-2.11-9.23-6.82-11.64-13.24-1.71-4.31-2.11-11.04-2.11-24.18v-23.68Z"/>
          <path class="cls-2" d="M214.91,1372.87c0-7.42,0-13.84-.1-16.55-.1-3.31-1.4-5.02-2.81-5.02h-4.01c-.5,0-.6-.3-.6-.7v-2.71c0-.5.1-.7.6-.7.9,0,4.01.3,14.95.3,5.62,0,14.45-.3,18.56-.3,7.82,0,13.64,2.81,17.76,6.62,3.61,3.31,5.72,7.22,5.72,10.94,0,12.74-9.53,18.46-18.36,19.26v.7c3.11,1,4.72,2.91,6.62,5.32,1.3,1.61,6.82,10.53,7.62,11.74.6.9,6.02,8.53,8.03,10.84,1.2,1.3,5.02,2.11,7.32,2.11.7,0,.8.4.8.8v2.41c0,.6-.1.9-.8.9-.8,0-3.41-.3-11.14-.3-2.91,0-6.62.2-9.53.3-3.01-2.31-9.23-13.94-10.94-17.36-3.41-6.82-7.52-14.25-12.34-14.25h-3.41v5.12c0,5.92.3,17.15.5,18.46.2,2.11,1,3.91,2.51,3.91h4.11c.7,0,.8.3.8.8v2.41c0,.7-.1.9-1.6.9-.1,0-2.61-.3-13.14-.3s-12.94.3-14.05.3c-.8,0-.8-.3-.8-1v-2.31c0-.5,0-.8.5-.8h3.01c2.21,0,4.01-.7,4.01-3.21.2-9.93.2-19.36.2-28.89v-9.73ZM228.96,1383.71c1.91.1,3.11.1,4.01.1,13.24,0,16.35-12.64,16.35-17.36s-1.6-9.03-3.81-11.24c-3.61-3.21-8.13-4.41-11.14-4.41-1.71,0-3.01.2-3.81.9-.6.4-.9,1.51-1.1,2.71l-.5,29.29Z"/>
          <path class="cls-2" d="M348.74,1408.79c0,1.4.4,2.41.4,3.21s-.6,1.2-1.61,1.61c-8.13,4.11-16.65,6.42-29.39,6.42-10.43,0-22.17-3.31-29.09-11.44-6.12-6.92-9.23-15.45-9.23-27.59,0-9.13,4.31-18.86,11.64-25.18,7.32-6.42,16.35-9.83,28.39-9.83,10.13,0,17.66,2.81,20.97,4.92,1.2.7,1.91.5,2.51-.3l1-1.61c.5-.7.7-1,1.3-1,1.1,0,1.4.7,1.4,1.81l1.5,20.67c.1,1.2,0,1.71-.4,1.81l-2.81.6c-.6.1-.9-.1-1.2-1-1.61-4.92-4.82-11.34-9.13-15.25-3.91-3.71-9.03-6.22-15.85-6.22-5.42,0-10.43,1.71-15.15,7.52-4.62,5.52-8.03,13.84-8.03,22.87,0,11.84,3.31,22.17,8.73,27.59,4.72,4.72,8.53,6.82,15.35,6.82,5.22,0,8.03-.4,11.34-2.01,2.11-1,2.31-4.21,2.31-9.43v-7.22c0-3.61-1-4.62-3.51-4.62h-4.21c-.6,0-.7-.4-.7-.9v-2.51c0-.4.1-.7.7-.7.9,0,5.82.3,14.85.3s12.94-.3,13.74-.3.9.3.9.8v2.51c0,.6-.1.8-.7.8h-2.91c-1.81,0-3.11.7-3.11,3.61v13.24Z"/>
          <path class="cls-2" d="M372.32,1376.48c0-2.41-.3-20.47-.4-21.77-.2-2.41-1.2-3.41-3.31-3.41h-4.82c-.5,0-.8-.2-.8-.6v-2.91c0-.4.3-.6.7-.6,1.2,0,6.32.3,16.15.3s13.44-.3,14.85-.3c.5,0,.7.3.7.9v2.51c0,.5-.3.7-.8.7h-2.91c-2.51,0-4.01.8-4.01,2.61,0,1-.3,23.17-.3,24.38v7.72c0,1,.3,24.18.3,25.08,0,3.11,1.5,3.61,3.41,3.61h4.11c.5,0,.8.2.8.7v2.81c0,.4-.3.6-.9.6-1.2,0-5.22-.3-14.75-.3-10.53,0-14.85.3-15.95.3-.5,0-.8-.2-.8-.8v-2.71c0-.4.3-.6.8-.6h2.91c2.01,0,4.11-.3,4.51-2.71.2-1.51.5-23.17.5-28.49v-7.02Z"/>
          <path class="cls-2" d="M416.67,1410.79c-7.42-6.62-10.94-18.16-10.94-26.79,0-10.33,3.31-19.66,10.33-27.19,5.72-6.12,14.05-10.83,26.48-10.83,9.13,0,16.65,2.31,20.17,4.21,1.4.7,1.91.6,2.11-.1l.8-2.51c.2-.6.4-.6,1.91-.6s1.71.2,1.71,1.61c0,1.91,1.81,18.96,2.31,21.97.1.7,0,1.2-.5,1.3l-2.21.6c-.5.2-.9-.2-1.2-1.1-1.1-4.01-3.81-9.13-8.03-13.44-4.31-4.21-9.63-7.52-17.26-7.52-14.65,0-20.87,13.34-20.77,28.19,0,6.32,1.81,18.66,8.93,26.18,6.52,6.72,12.24,7.52,15.65,7.52,11.44,0,19.96-5.22,23.68-10.73.5-.8,1-1.2,1.51-.8l1.71,1.5c.3.2.4.6,0,1.2-5.82,8.43-15.55,16.55-29.7,16.55-13.34,0-20.37-3.61-26.69-9.23Z"/>
          <path class="cls-2" d="M494.62,1391.03c-.8,2.11-5.72,15.85-5.72,19.06,0,2.21.9,4.61,3.91,4.61h3.51c1,0,1.1.4,1.1.8v2.21c0,.8-.1,1.1-.9,1.1-1.3,0-5.42-.3-13.64-.3-7.32,0-9.53.3-10.94.3-.6,0-.7-.6-.7-1.3v-1.91c0-.6.1-.9.7-.9h2.61c2.41,0,4.82-1.4,6.82-4.41,1.4-2.11,8.53-19.56,11.84-28.39.8-2.01,8.93-23.58,9.83-26.28.3-1,.8-2.31.1-3.41-.3-.4-.7-.9-.7-1.3,0-.3.2-.7,1-.9,3.21-.7,9.73-3.31,11.24-5.02.5-.5.8-.9,1.3-.9.6,0,.8.6,1.1,1.71,1.91,6.32,9.73,28.79,11.64,35.21,2.31,7.83,8.83,26.49,10.23,29.19,1.71,3.31,4.31,4.51,5.82,4.51h3.41c.6,0,.7.4.7.9v1.91c0,.6-.1,1.3-.9,1.3-1.91,0-4.01-.3-16.85-.3-8.33,0-11.84.3-13.84.3-1,0-1.1-.6-1.1-1.3v-1.91c0-.5.1-.9.6-.9h2.81c2.71,0,3.61-1,3.01-3.61-.9-3.61-4.82-16.45-6.02-20.06h-21.97ZM515.69,1387.02l-7.52-26.59c-.4-1.5-.6-2.21-1.1-2.21-.6,0-.9.4-1.2,1.3-.5,1.3-9.13,24.98-9.93,27.49h19.76Z"/>
          <path class="cls-2" d="M574.98,1387.12c0,1.71,0,23.38.3,27.39h5.72c4.72,0,9.23,0,14.65-.5,5.42-.5,12.24-12.54,13.74-16.25.3-.6.6-.9,1.2-.6l2.01.8c.3.2.3.3.2.9-.3.7-4.31,17.26-4.92,19.96-2.61-.2-31.5-.3-40.73-.3-9.93,0-13.54.3-14.85.3-.7,0-.8-.2-.8-.9v-2.51c0-.5.1-.7.7-.7h3.11c3.71,0,4.31-1.4,4.31-2.51,0-1.91.3-26.89.3-33.01v-5.62c0-6.42-.2-17.05-.3-18.66-.2-2.61-.7-3.61-3.01-3.61h-3.71c-.6,0-.7-.5-.7-1v-2.41c0-.5.1-.7.7-.7,1.1,0,4.72.3,13.84.3,11.74,0,15.95-.3,16.85-.3.8,0,.9.3.9,1v2.31c0,.5-.2.8-1,.8h-4.72c-3.11,0-3.51,1-3.51,3.71,0,1.3-.3,16.45-.3,23.48v8.63Z"/>
          <path class="cls-2" d="M646.81,1372.87c0-7.42,0-13.84-.1-16.55-.1-3.31-1.4-5.02-2.81-5.02h-4.01c-.5,0-.6-.3-.6-.7v-2.71c0-.5.1-.7.6-.7.9,0,4.01.3,14.95.3,5.62,0,14.45-.3,18.56-.3,7.83,0,13.64,2.81,17.76,6.62,3.61,3.31,5.72,7.22,5.72,10.94,0,12.74-9.53,18.46-18.36,19.26v.7c3.11,1,4.72,2.91,6.62,5.32,1.3,1.61,6.82,10.53,7.62,11.74.6.9,6.02,8.53,8.03,10.84,1.2,1.3,5.02,2.11,7.32,2.11.7,0,.8.4.8.8v2.41c0,.6-.1.9-.8.9-.8,0-3.41-.3-11.14-.3-2.91,0-6.62.2-9.53.3-3.01-2.31-9.23-13.94-10.94-17.36-3.41-6.82-7.52-14.25-12.34-14.25h-3.41v5.12c0,5.92.3,17.15.5,18.46.2,2.11,1,3.91,2.51,3.91h4.11c.7,0,.8.3.8.8v2.41c0,.7-.1.9-1.61.9-.1,0-2.61-.3-13.14-.3s-12.94.3-14.05.3c-.8,0-.8-.3-.8-1v-2.31c0-.5,0-.8.5-.8h3.01c2.21,0,4.01-.7,4.01-3.21.2-9.93.2-19.36.2-28.89v-9.73ZM660.86,1383.71c1.91.1,3.11.1,4.01.1,13.24,0,16.35-12.64,16.35-17.36s-1.61-9.03-3.81-11.24c-3.61-3.21-8.13-4.41-11.14-4.41-1.71,0-3.01.2-3.81.9-.6.4-.9,1.51-1.1,2.71l-.5,29.29Z"/>
          <path class="cls-2" d="M734.6,1380.1c4.62,0,9.03-.3,10.23-.6,1.71-.4,3.11-1.3,4.62-3.11,1.1-1.51,2.31-4.31,2.31-6.22,0-.7.3-.9.8-.9l2.71.3c.5.1.9.2.8.8-.3,1.71-.3,6.92-.3,10.43,0,4.51.4,9.33.6,11.44.1.6-.3.7-.8.8l-2.41.5c-.4.1-.6-.1-.8-.8-.4-1.61-1.4-3.91-2.01-5.12-1.1-1.91-3.51-3.21-5.52-3.51-2.71-.4-5.82-.6-10.23-.6v6.02c0,5.42.5,15.15.5,16.95,0,5.22,1.1,7.02,2.41,7.62,1.51.6,3.41.9,8.43.9,1.71,0,5.92-.1,8.03-.3,2.01-.2,5.02-1.2,7.62-3.31,2.61-2.11,8.23-8.33,10.23-10.73.4-.4.7-.5,1-.3l1.71,1c.4.2.5.5.4.8l-4.51,15.15c-.3.9-1,1.5-2.21,1.5-.5,0-2.71-.1-9.13-.2-6.52,0-17.15-.1-34.51-.1-3.71,0-6.52.1-8.53.1-2.11.1-3.41.2-4.31.2-.7,0-.9-.3-.9-1.1v-2.11c0-.6.3-.9,1-.9h3.01c4.62,0,5.02-.7,5.02-4.21v-33.61c0-8.33-.2-20.67-.3-21.67-.4-3.21-1.4-3.91-4.11-3.91h-3.91c-.4,0-.5-.3-.5-1v-2.41c0-.3.1-.7.7-.7,2.21,0,5.72.3,14.85.3l35.21-.1c1.61,0,3.51-.2,4.01-.2s.7.2.8.5c.4,1.4,3.71,15.15,4.11,16.15.2.5.2.7-.3,1l-1.61.8c-.4.2-.9.1-1.2-.4-.5-.8-9.53-9.83-11.84-11.24-2.11-1.3-4.92-2.61-7.62-2.71l-13.24-.4-.3,29.19Z"/>
          <path class="cls-2" d="M792.88,1410.79c-7.42-6.62-10.94-18.16-10.94-26.79,0-10.33,3.31-19.66,10.33-27.19,5.72-6.12,14.05-10.83,26.48-10.83,9.13,0,16.65,2.31,20.17,4.21,1.4.7,1.91.6,2.11-.1l.8-2.51c.2-.6.4-.6,1.91-.6s1.71.2,1.71,1.61c0,1.91,1.81,18.96,2.31,21.97.1.7,0,1.2-.5,1.3l-2.21.6c-.5.2-.9-.2-1.2-1.1-1.1-4.01-3.81-9.13-8.03-13.44-4.31-4.21-9.63-7.52-17.26-7.52-14.65,0-20.87,13.34-20.77,28.19,0,6.32,1.81,18.66,8.93,26.18,6.52,6.72,12.24,7.52,15.65,7.52,11.44,0,19.96-5.22,23.68-10.73.5-.8,1-1.2,1.51-.8l1.71,1.5c.3.2.4.6,0,1.2-5.82,8.43-15.55,16.55-29.7,16.55-13.34,0-20.37-3.61-26.69-9.23Z"/>
          <path class="cls-2" d="M870.14,1413.5c-7.12-4.31-14.75-15.15-14.75-29.8,0-6.12,1.61-15.65,9.33-24.98,8.83-10.73,20.16-12.74,29.19-12.74,8.33,0,16.05,1.3,24.48,7.93,7.62,6.02,13.74,16.15,13.74,30,0,7.32-2.31,14.95-7.52,21.97-6.52,8.13-15.05,14.15-30.9,14.15-6.92,0-15.65-1.61-23.58-6.52ZM916.39,1384.71c0-21.97-14.45-34.01-22.87-34.01-2.01,0-7.02-.5-13.14,5.42-5.92,5.62-8.93,16.15-8.93,24.38,0,25.68,14.75,34.81,23.07,34.81,18.56,0,21.87-22.37,21.87-30.6Z"/>
          <path class="cls-2" d="M981.9,1347.89c0-.5.1-.7.6-.7.9,0,5.52.3,12.24.3,9.33,0,11.84-.3,12.74-.3.6,0,.7.2.7.9v2.51c0,.4-.1.7-.7.7h-2.31c-1.71,0-4.82.7-7.42,5.22-4.01,6.82-8.33,18.66-12.14,27.09-2.51,5.42-13.84,32.3-15.55,35.21-.7,1.2-1.2,1.71-2.31,1.71-1.3,0-1.71-1.2-2.31-2.51-3.71-7.93-12.84-32.2-15.65-39.13-2.81-6.92-7.82-21.47-9.03-24.28-1-2.31-2.21-3.31-4.31-3.31h-2.61c-.4,0-.5-.5-.5-1v-2.41c0-.5.1-.7.7-.7,1,0,4.31.3,16.35.3,10.43,0,14.95-.3,15.85-.3s1,.3,1,.9v2.31c0,.5-.1.9-.8.9h-4.31c-2.41,0-4.31,1.1-4.31,2.41,0,.8,0,2.01.3,3.41.8,3.61,4.62,15.55,6.72,21.37l7.62,22.37h.4c2.91-6.72,7.83-19.26,9.13-22.87,1.91-4.92,5.02-13.34,6.62-17.86,1-2.61,1-4.31,1-5.52s-1.2-3.31-4.11-3.31h-3.11c-.4,0-.5-.3-.5-.9v-2.51Z"/>
          <path class="cls-2" d="M1030.66,1380.1c4.62,0,9.03-.3,10.23-.6,1.71-.4,3.11-1.3,4.62-3.11,1.1-1.51,2.31-4.31,2.31-6.22,0-.7.3-.9.8-.9l2.71.3c.5.1.9.2.8.8-.3,1.71-.3,6.92-.3,10.43,0,4.51.4,9.33.6,11.44.1.6-.3.7-.8.8l-2.41.5c-.4.1-.6-.1-.8-.8-.4-1.61-1.4-3.91-2.01-5.12-1.1-1.91-3.51-3.21-5.52-3.51-2.71-.4-5.82-.6-10.23-.6v6.02c0,5.42.5,15.15.5,16.95,0,5.22,1.1,7.02,2.41,7.62,1.51.6,3.41.9,8.43.9,1.71,0,5.92-.1,8.03-.3,2.01-.2,5.02-1.2,7.62-3.31,2.61-2.11,8.23-8.33,10.23-10.73.4-.4.7-.5,1-.3l1.71,1c.4.2.5.5.4.8l-4.51,15.15c-.3.9-1,1.5-2.21,1.5-.5,0-2.71-.1-9.13-.2-6.52,0-17.15-.1-34.51-.1-3.71,0-6.52.1-8.53.1-2.11.1-3.41.2-4.31.2-.7,0-.9-.3-.9-1.1v-2.11c0-.6.3-.9,1-.9h3.01c4.62,0,5.02-.7,5.02-4.21v-33.61c0-8.33-.2-20.67-.3-21.67-.4-3.21-1.4-3.91-4.11-3.91h-3.91c-.4,0-.5-.3-.5-1v-2.41c0-.3.1-.7.7-.7,2.21,0,5.72.3,14.85.3l35.21-.1c1.61,0,3.51-.2,4.01-.2s.7.2.8.5c.4,1.4,3.71,15.15,4.11,16.15.2.5.2.7-.3,1l-1.61.8c-.4.2-.9.1-1.2-.4-.5-.8-9.53-9.83-11.84-11.24-2.11-1.3-4.92-2.61-7.62-2.71l-13.24-.4-.3,29.19Z"/>
          <path class="cls-2" d="M1083.83,1372.87c0-7.42,0-13.84-.1-16.55-.1-3.31-1.4-5.02-2.81-5.02h-4.01c-.5,0-.6-.3-.6-.7v-2.71c0-.5.1-.7.6-.7.9,0,4.01.3,14.95.3,5.62,0,14.45-.3,18.56-.3,7.83,0,13.64,2.81,17.76,6.62,3.61,3.31,5.72,7.22,5.72,10.94,0,12.74-9.53,18.46-18.36,19.26v.7c3.11,1,4.72,2.91,6.62,5.32,1.3,1.61,6.82,10.53,7.62,11.74.6.9,6.02,8.53,8.03,10.84,1.2,1.3,5.02,2.11,7.32,2.11.7,0,.8.4.8.8v2.41c0,.6-.1.9-.8.9-.8,0-3.41-.3-11.14-.3-2.91,0-6.62.2-9.53.3-3.01-2.31-9.23-13.94-10.94-17.36-3.41-6.82-7.52-14.25-12.34-14.25h-3.41v5.12c0,5.92.3,17.15.5,18.46.2,2.11,1,3.91,2.51,3.91h4.11c.7,0,.8.3.8.8v2.41c0,.7-.1.9-1.61.9-.1,0-2.61-.3-13.14-.3s-12.94.3-14.05.3c-.8,0-.8-.3-.8-1v-2.31c0-.5,0-.8.5-.8h3.01c2.21,0,4.01-.7,4.01-3.21.2-9.93.2-19.36.2-28.89v-9.73ZM1097.87,1383.71c1.91.1,3.11.1,4.01.1,13.24,0,16.35-12.64,16.35-17.36s-1.61-9.03-3.81-11.24c-3.61-3.21-8.13-4.41-11.14-4.41-1.71,0-3.01.2-3.81.9-.6.4-.9,1.51-1.1,2.71l-.5,29.29Z"/>
          <path class="cls-2" d="M1180.04,1399.86c0,3.91.3,10.43.4,11.34.3,3.21,1.81,3.51,3.41,3.51h2.91c.7,0,.7.3.7.7v2.51c0,.6,0,.9-.7.9-1.2,0-5.12-.3-14.55-.3-10.43,0-13.54.3-14.65.3-.4,0-.6-.3-.6-1v-2.41c0-.4.1-.7.7-.7h3.51c2.61,0,3.41-1,3.51-2.31.1-1.4.3-9.33.3-18.66v-4.31c-1.61-3.11-17.66-32.4-20.16-35.82-1.2-1.5-3.61-2.31-5.22-2.31h-1.5c-.6,0-.7-.3-.7-.7v-2.81c0-.4.1-.6.7-.6.9,0,5.62.3,14.55.3,10.33,0,13.94-.3,14.95-.3.6,0,.7.2.7.7v2.51c0,.5-.1.9-.7.9h-2.31c-1.4,0-2.41,1-2.41,2.61,0,1.81,11.94,24.78,14.65,30.6,3.01-5.52,15.05-26.69,15.05-29.8,0-1.71-1.71-3.41-3.81-3.41h-2.71c-.6,0-.7-.3-.7-.9v-2.61c0-.4.1-.6.7-.6,1,0,5.12.3,12.54.3,6.92,0,9.13-.3,10.03-.3.7,0,.8.2.8.8v2.41c0,.6-.1.9-.8.9h-1.81c-1.2,0-4.21.6-5.72,2.41-1.3,1.61-16.95,27.29-21.07,35.01v11.14Z"/>
          <path class="cls-2" d="M1234.72,1396.35c.4,0,.7.1.7.8.2,3.11,1.61,7.42,4.01,11.34,2.91,4.61,7.83,6.82,12.64,6.82s12.54-3.21,12.54-11.14c0-8.33-1.61-10.73-14.65-15.65-3.01-1.1-9.43-4.31-14.55-8.73-3.51-3.11-5.02-8.43-5.02-14.25,0-6.12,1.5-10.23,7.52-14.75,4.51-3.41,8.33-4.82,14.45-4.82,7.32,0,11.24,1.2,13.34,2.01,1,.4,1.71.2,2.31-.5l1.3-1.3c.4-.4.9-.6,1.51-.6.7,0,.9,1.1,1,1.71l1.61,17.16c0,.4-.2.5-.5.6l-2.21.7c-.5.2-1,0-1.3-.7-1.1-2.91-2.81-6.82-6.22-10.43-2.51-2.81-5.52-4.21-10.03-4.21-7.52,0-10.63,6.52-10.63,9.13,0,3.71.1,6.72,2.61,9.23,2.61,2.71,8.33,5.12,13.24,6.52,4.82,1.4,8.73,3.91,12.84,7.62,3.91,3.51,5.52,7.93,5.52,14.95,0,12.24-8.73,22.17-21.97,22.17-9.03,0-13.74-1.51-17.96-4.31-1.2-.8-1.81-1.1-2.31-1.1-.6,0-1,.7-1.61,1.71-.6,1.1-1.1,1.2-1.81,1.2-1.1,0-1.5-.5-1.4-1.61l1.61-19.06c.1-.7.4-.7.8-.7l2.61.2Z"/>
          <path class="cls-2" d="M1319.19,1399.86c0,3.91.3,10.43.4,11.34.3,3.21,1.81,3.51,3.41,3.51h2.91c.7,0,.7.3.7.7v2.51c0,.6,0,.9-.7.9-1.2,0-5.12-.3-14.55-.3-10.43,0-13.54.3-14.65.3-.4,0-.6-.3-.6-1v-2.41c0-.4.1-.7.7-.7h3.51c2.61,0,3.41-1,3.51-2.31.1-1.4.3-9.33.3-18.66v-4.31c-1.61-3.11-17.66-32.4-20.16-35.82-1.2-1.5-3.61-2.31-5.22-2.31h-1.5c-.6,0-.7-.3-.7-.7v-2.81c0-.4.1-.6.7-.6.9,0,5.62.3,14.55.3,10.33,0,13.94-.3,14.95-.3.6,0,.7.2.7.7v2.51c0,.5-.1.9-.7.9h-2.31c-1.4,0-2.41,1-2.41,2.61,0,1.81,11.94,24.78,14.65,30.6,3.01-5.52,15.05-26.69,15.05-29.8,0-1.71-1.71-3.41-3.81-3.41h-2.71c-.6,0-.7-.3-.7-.9v-2.61c0-.4.1-.6.7-.6,1,0,5.12.3,12.54.3,6.92,0,9.13-.3,10.03-.3.7,0,.8.2.8.8v2.41c0,.6-.1.9-.8.9h-1.81c-1.2,0-4.21.6-5.72,2.41-1.3,1.61-16.95,27.29-21.07,35.01v11.14Z"/>
          <path class="cls-2" d="M1353.8,1396.35c.4,0,.7.1.7.8.2,3.11,1.61,7.42,4.01,11.34,2.91,4.61,7.83,6.82,12.64,6.82s12.54-3.21,12.54-11.14c0-8.33-1.61-10.73-14.65-15.65-3.01-1.1-9.43-4.31-14.55-8.73-3.51-3.11-5.02-8.43-5.02-14.25,0-6.12,1.5-10.23,7.52-14.75,4.51-3.41,8.33-4.82,14.45-4.82,7.32,0,11.24,1.2,13.34,2.01,1,.4,1.71.2,2.31-.5l1.3-1.3c.4-.4.9-.6,1.51-.6.7,0,.9,1.1,1,1.71l1.61,17.16c0,.4-.2.5-.5.6l-2.21.7c-.5.2-1,0-1.3-.7-1.1-2.91-2.81-6.82-6.22-10.43-2.51-2.81-5.52-4.21-10.03-4.21-7.52,0-10.63,6.52-10.63,9.13,0,3.71.1,6.72,2.61,9.23,2.61,2.71,8.33,5.12,13.24,6.52,4.82,1.4,8.73,3.91,12.84,7.62,3.91,3.51,5.52,7.93,5.52,14.95,0,12.24-8.73,22.17-21.97,22.17-9.03,0-13.74-1.51-17.96-4.31-1.2-.8-1.81-1.1-2.31-1.1-.6,0-1,.7-1.61,1.71-.6,1.1-1.1,1.2-1.81,1.2-1.1,0-1.5-.5-1.4-1.61l1.61-19.06c.1-.7.4-.7.8-.7l2.61.2Z"/>
          <path class="cls-2" d="M1429.75,1352.11h-3.51c-3.21,0-9.23.1-13.44,1.61-2.21,1.61-6.62,7.72-9.13,11.34-.3.5-.6.8-1,.7l-2.21-.8c-.4-.1-.5-.6-.4-.9,1.1-4.21,4.41-17.46,4.82-19.46.3-1.3.8-1.71,1.5-1.71s1,.4,1.91,1.5c1.1,1.4,3.01,2.31,6.62,2.51,5.32.3,9.53.6,19.96.6h5.82c10.94,0,15.25-.4,19.46-.6,2.21-.1,6.12-1.3,7.32-2.51,1-1,1.61-1.5,2.31-1.5s1,.4,1.2,1.61l3.01,19.96c.1.4-.1.8-.4.9l-2.11.8c-.4.1-.6-.2-1-.9-2.21-3.61-6.12-8.83-8.63-11.24-2.51-1.5-11.44-1.91-13.74-1.91h-3.31v27.59c0,1.4,0,29.49.1,31,.2,2.51,1,4.01,3.41,4.01h4.51c.9,0,1,.3,1,1v2.31c0,.5-.1.8-1,.8-1,0-4.21-.3-15.35-.3s-14.85.3-16.25.3c-.8,0-.9-.4-.9-1.2v-1.91c0-.7.1-1,.7-1h5.12c2.01,0,3.21-1.2,3.41-3.01.2-2.11.2-32.91.2-34.81v-24.78Z"/>
          <path class="cls-2" d="M1503.39,1380.1c4.62,0,9.03-.3,10.23-.6,1.71-.4,3.11-1.3,4.62-3.11,1.1-1.51,2.31-4.31,2.31-6.22,0-.7.3-.9.8-.9l2.71.3c.5.1.9.2.8.8-.3,1.71-.3,6.92-.3,10.43,0,4.51.4,9.33.6,11.44.1.6-.3.7-.8.8l-2.41.5c-.4.1-.6-.1-.8-.8-.4-1.61-1.4-3.91-2.01-5.12-1.1-1.91-3.51-3.21-5.52-3.51-2.71-.4-5.82-.6-10.23-.6v6.02c0,5.42.5,15.15.5,16.95,0,5.22,1.1,7.02,2.41,7.62,1.51.6,3.41.9,8.43.9,1.71,0,5.92-.1,8.03-.3,2.01-.2,5.02-1.2,7.62-3.31,2.61-2.11,8.23-8.33,10.23-10.73.4-.4.7-.5,1-.3l1.71,1c.4.2.5.5.4.8l-4.51,15.15c-.3.9-1,1.5-2.21,1.5-.5,0-2.71-.1-9.13-.2-6.52,0-17.15-.1-34.51-.1-3.71,0-6.52.1-8.53.1-2.11.1-3.41.2-4.31.2-.7,0-.9-.3-.9-1.1v-2.11c0-.6.3-.9,1-.9h3.01c4.62,0,5.02-.7,5.02-4.21v-33.61c0-8.33-.2-20.67-.3-21.67-.4-3.21-1.4-3.91-4.11-3.91h-3.91c-.4,0-.5-.3-.5-1v-2.41c0-.3.1-.7.7-.7,2.21,0,5.72.3,14.85.3l35.21-.1c1.61,0,3.51-.2,4.01-.2s.7.2.8.5c.4,1.4,3.71,15.15,4.11,16.15.2.5.2.7-.3,1l-1.61.8c-.4.2-.9.1-1.2-.4-.5-.8-9.53-9.83-11.84-11.24-2.11-1.3-4.92-2.61-7.62-2.71l-13.24-.4-.3,29.19Z"/>
          <path class="cls-2" d="M1561.17,1405.38c.3,3.71,1.91,9.33,5.22,9.33h3.91c.6,0,.7.3.7.7v2.71c0,.4-.1.7-.9.7-1.1,0-3.81-.3-11.14-.3-8.53,0-12.04.3-12.94.3-.8,0-.9-.1-.9-.9v-2.61c0-.3.1-.6.6-.6h4.11c3.21,0,4.41-4.61,4.82-7.82.9-7.12,1.81-30.8,1.81-32.61l-.1-15.35c0-4.62-1-7.62-5.52-7.62h-3.31c-.6,0-.7-.3-.7-.7v-2.81c0-.3.1-.6.7-.6,1,0,3.71.3,15.55.3,4.72,0,7.83-.3,9.03-.3,1,0,1.81.1,2.41,1.71,6.42,17.05,13.64,33.71,19.26,48.76,1.1-1.91,8.73-20.57,9.33-21.97.4-1,10.43-24.98,10.94-26.99.3-1.1,1.61-1.2,4.62-1.2,15.65,0,19.06-.3,20.16-.3.5,0,.6.3.6.9v2.31c0,.6-.1.9-.8.9h-4.41c-2.31,0-2.61,1.81-2.61,3.91,0,1.51.1,26.18.2,28.29,0,2.01.3,23.98.3,25.78,0,3.81.9,5.42,2.31,5.42h4.82c.6,0,.7.3.7.7v2.51c0,.6-.1.9-.9.9-1.2,0-3.01-.3-14.85-.3-10.23,0-14.15.3-15.45.3-.7,0-.8-.3-.8-.9v-2.51c0-.5.1-.7.8-.7h5.62c1.71,0,2.61-.6,2.81-3.41.1-1.2.4-19.46.4-26.49v-30.6h-.6c-1,1.71-12.24,28.99-14.05,33.11-2.11,4.62-11.04,26.89-11.54,27.79-.5.8-1.2,2.31-2.41,2.31-.7,0-1.3-.7-1.81-1.81-.3-.7-13.54-31.8-14.25-33.61-1.81-4.62-11.04-27.09-11.84-28.29-.4,1.4-.6,26.79-.6,27.99s.1,14.85.7,23.68Z"/>
          <path class="cls-2" d="M1653.97,1396.35c.4,0,.7.1.7.8.2,3.11,1.61,7.42,4.01,11.34,2.91,4.61,7.83,6.82,12.64,6.82s12.54-3.21,12.54-11.14c0-8.33-1.61-10.73-14.65-15.65-3.01-1.1-9.43-4.31-14.55-8.73-3.51-3.11-5.02-8.43-5.02-14.25,0-6.12,1.5-10.23,7.52-14.75,4.51-3.41,8.33-4.82,14.45-4.82,7.32,0,11.24,1.2,13.34,2.01,1,.4,1.71.2,2.31-.5l1.3-1.3c.4-.4.9-.6,1.51-.6.7,0,.9,1.1,1,1.71l1.61,17.16c0,.4-.2.5-.5.6l-2.21.7c-.5.2-1,0-1.3-.7-1.1-2.91-2.81-6.82-6.22-10.43-2.51-2.81-5.52-4.21-10.03-4.21-7.52,0-10.63,6.52-10.63,9.13,0,3.71.1,6.72,2.61,9.23,2.61,2.71,8.33,5.12,13.24,6.52,4.82,1.4,8.73,3.91,12.84,7.62,3.91,3.51,5.52,7.93,5.52,14.95,0,12.24-8.73,22.17-21.97,22.17-9.03,0-13.74-1.51-17.96-4.31-1.2-.8-1.81-1.1-2.31-1.1-.6,0-1,.7-1.61,1.71-.6,1.1-1.1,1.2-1.81,1.2-1.1,0-1.5-.5-1.4-1.61l1.61-19.06c.1-.7.4-.7.8-.7l2.61.2Z"/>
        </g>
      </g>
    </g>
  </g>
</svg>